ISO-10303-21;
HEADER;
/* Generated by software containing ST-Developer
 * from STEP Tools, Inc. (www.steptools.com) 
 */

FILE_DESCRIPTION(
/* description */ (''),
/* implementation_level */ '2;1');

FILE_NAME(
/* name */ 'Block_screws.step',
/* time_stamp */ '2026-09-25T20:59:24+02:00',
/* author */ (''),
/* organization */ (''),
/* preprocessor_version */ 'ST-DEVELOPER v20.2',
/* originating_system */ 'Autodesk Translation Framework v15.15.0.0',
/* authorisation */ '');

FILE_SCHEMA (('AUTOMOTIVE_DESIGN { 1 0 10303 214 3 1 1 }'));
ENDSEC;

DATA;
#10=MECHANICAL_DESIGN_GEOMETRIC_PRESENTATION_REPRESENTATION('',(#13),#1655);
#11=SHAPE_REPRESENTATION_RELATIONSHIP('SRR','None',#1662,#12);
#12=ADVANCED_BREP_SHAPE_REPRESENTATION('',(#14),#1654);
#13=STYLED_ITEM('',(#1672),#14);
#14=MANIFOLD_SOLID_BREP('Body1',#919);
#15=FACE_BOUND('',#178,.T.);
#16=FACE_BOUND('',#179,.T.);
#17=FACE_BOUND('',#180,.T.);
#18=FACE_BOUND('',#181,.T.);
#19=CONICAL_SURFACE('',#1005,2.8,0.785398163397449);
#20=CONICAL_SURFACE('',#1008,2.8,0.78539816339745);
#21=CONICAL_SURFACE('',#1010,2.8,0.785398163397443);
#22=CONICAL_SURFACE('',#1012,2.8,0.785398163397437);
#23=CONICAL_SURFACE('',#1018,1.5000000000001,0.785398163397165);
#24=CONICAL_SURFACE('',#1021,1.5000000000001,0.785398163397204);
#25=CONICAL_SURFACE('',#1024,1.50000000000011,0.785398163396931);
#26=CONICAL_SURFACE('',#1029,1.50000000000011,0.785398163396892);
#27=ELLIPSE('',#962,1.00776289519425,1.);
#28=ELLIPSE('',#964,1.00776289519221,1.);
#29=ELLIPSE('',#967,1.00776289519424,1.);
#30=ELLIPSE('',#969,1.00776289519219,1.);
#31=ELLIPSE('',#986,1.00776285800025,1.);
#32=ELLIPSE('',#988,1.00776285800242,1.);
#33=ELLIPSE('',#994,1.00776285800025,1.);
#34=ELLIPSE('',#997,1.00776285800026,1.);
#35=B_SPLINE_CURVE_WITH_KNOTS('',3,(#1409,#1410,#1411,#1412,#1413,#1414,
#1415,#1416,#1417,#1418),.UNSPECIFIED.,.F.,.F.,(4,2,2,2,4),(0.187753863471892,
0.203341867838267,0.218929872204642,0.233959280747757,0.248988689290871),
 .UNSPECIFIED.);
#36=B_SPLINE_CURVE_WITH_KNOTS('',3,(#1422,#1423,#1424,#1425,#1426,#1427,
#1428,#1429,#1430,#1431),.UNSPECIFIED.,.F.,.F.,(4,2,2,2,4),(0.,0.0150294085431146,
0.0300588170862291,0.0456468214526039,0.0612348258189786),.UNSPECIFIED.);
#37=B_SPLINE_CURVE_WITH_KNOTS('',3,(#1436,#1437,#1438,#1439,#1440,#1441,
#1442,#1443,#1444,#1445),.UNSPECIFIED.,.F.,.F.,(4,2,2,2,4),(0.0632567853987168,
0.0788447897650916,0.0944327941314664,0.10946220267458,0.124491611217693),
 .UNSPECIFIED.);
#38=B_SPLINE_CURVE_WITH_KNOTS('',3,(#1449,#1450,#1451,#1452,#1453,#1454,
#1455,#1456,#1457,#1458),.UNSPECIFIED.,.F.,.F.,(4,2,2,2,4),(0.124497078073178,
0.139526486616292,0.154555895159407,0.170143899525781,0.185731903892156),
 .UNSPECIFIED.);
#39=B_SPLINE_CURVE_WITH_KNOTS('',3,(#1497,#1498,#1499,#1500,#1501,#1502,
#1503,#1504,#1505,#1506),.UNSPECIFIED.,.F.,.F.,(4,2,2,2,4),(0.18775320650944,
0.203258406552206,0.218763606594971,0.233875693258491,0.248987779922012),
 .UNSPECIFIED.);
#40=B_SPLINE_CURVE_WITH_KNOTS('',3,(#1510,#1511,#1512,#1513,#1514,#1515,
#1516,#1517,#1518,#1519),.UNSPECIFIED.,.F.,.F.,(4,2,2,2,4),(0.,0.0151120866635216,
0.0302241733270433,0.0457293733698082,0.061234573412573),.UNSPECIFIED.);
#41=B_SPLINE_CURVE_WITH_KNOTS('',3,(#1524,#1525,#1526,#1527,#1528,#1529,
#1530,#1531,#1532,#1533),.UNSPECIFIED.,.F.,.F.,(4,2,2,2,4),(0.0632620493666893,
0.0787672494094541,0.094272449452219,0.10938453611574,0.12449662277926),
 .UNSPECIFIED.);
#42=B_SPLINE_CURVE_WITH_KNOTS('',3,(#1537,#1538,#1539,#1540,#1541,#1542,
#1543,#1544,#1545,#1546),.UNSPECIFIED.,.F.,.F.,(4,2,2,2,4),(0.12449115714275,
0.139603243806271,0.154715330469791,0.170220530512556,0.185725730555321),
 .UNSPECIFIED.);
#43=PLANE('',#936);
#44=PLANE('',#940);
#45=PLANE('',#944);
#46=PLANE('',#950);
#47=PLANE('',#958);
#48=PLANE('',#959);
#49=PLANE('',#972);
#50=PLANE('',#973);
#51=PLANE('',#974);
#52=PLANE('',#976);
#53=PLANE('',#980);
#54=PLANE('',#984);
#55=PLANE('',#991);
#56=PLANE('',#992);
#57=PLANE('',#999);
#58=PLANE('',#1001);
#59=PLANE('',#1003);
#60=PLANE('',#1004);
#61=PLANE('',#1007);
#62=PLANE('',#1014);
#63=PLANE('',#1015);
#64=PLANE('',#1016);
#65=PLANE('',#1017);
#66=PLANE('',#1027);
#67=FACE_OUTER_BOUND('',#125,.T.);
#68=FACE_OUTER_BOUND('',#126,.T.);
#69=FACE_OUTER_BOUND('',#127,.T.);
#70=FACE_OUTER_BOUND('',#128,.T.);
#71=FACE_OUTER_BOUND('',#129,.T.);
#72=FACE_OUTER_BOUND('',#130,.T.);
#73=FACE_OUTER_BOUND('',#131,.T.);
#74=FACE_OUTER_BOUND('',#132,.T.);
#75=FACE_OUTER_BOUND('',#133,.T.);
#76=FACE_OUTER_BOUND('',#134,.T.);
#77=FACE_OUTER_BOUND('',#135,.T.);
#78=FACE_OUTER_BOUND('',#136,.T.);
#79=FACE_OUTER_BOUND('',#137,.T.);
#80=FACE_OUTER_BOUND('',#138,.T.);
#81=FACE_OUTER_BOUND('',#139,.T.);
#82=FACE_OUTER_BOUND('',#140,.T.);
#83=FACE_OUTER_BOUND('',#141,.T.);
#84=FACE_OUTER_BOUND('',#142,.T.);
#85=FACE_OUTER_BOUND('',#143,.T.);
#86=FACE_OUTER_BOUND('',#144,.T.);
#87=FACE_OUTER_BOUND('',#145,.T.);
#88=FACE_OUTER_BOUND('',#146,.T.);
#89=FACE_OUTER_BOUND('',#147,.T.);
#90=FACE_OUTER_BOUND('',#148,.T.);
#91=FACE_OUTER_BOUND('',#149,.T.);
#92=FACE_OUTER_BOUND('',#150,.T.);
#93=FACE_OUTER_BOUND('',#151,.T.);
#94=FACE_OUTER_BOUND('',#152,.T.);
#95=FACE_OUTER_BOUND('',#153,.T.);
#96=FACE_OUTER_BOUND('',#154,.T.);
#97=FACE_OUTER_BOUND('',#155,.T.);
#98=FACE_OUTER_BOUND('',#156,.T.);
#99=FACE_OUTER_BOUND('',#157,.T.);
#100=FACE_OUTER_BOUND('',#158,.T.);
#101=FACE_OUTER_BOUND('',#159,.T.);
#102=FACE_OUTER_BOUND('',#160,.T.);
#103=FACE_OUTER_BOUND('',#161,.T.);
#104=FACE_OUTER_BOUND('',#162,.T.);
#105=FACE_OUTER_BOUND('',#163,.T.);
#106=FACE_OUTER_BOUND('',#164,.T.);
#107=FACE_OUTER_BOUND('',#165,.T.);
#108=FACE_OUTER_BOUND('',#166,.T.);
#109=FACE_OUTER_BOUND('',#167,.T.);
#110=FACE_OUTER_BOUND('',#168,.T.);
#111=FACE_OUTER_BOUND('',#169,.T.);
#112=FACE_OUTER_BOUND('',#170,.T.);
#113=FACE_OUTER_BOUND('',#171,.T.);
#114=FACE_OUTER_BOUND('',#172,.T.);
#115=FACE_OUTER_BOUND('',#173,.T.);
#116=FACE_OUTER_BOUND('',#174,.T.);
#117=FACE_OUTER_BOUND('',#175,.T.);
#118=FACE_OUTER_BOUND('',#176,.T.);
#119=FACE_OUTER_BOUND('',#177,.T.);
#120=FACE_OUTER_BOUND('',#182,.T.);
#121=FACE_OUTER_BOUND('',#183,.T.);
#122=FACE_OUTER_BOUND('',#184,.T.);
#123=FACE_OUTER_BOUND('',#185,.T.);
#124=FACE_OUTER_BOUND('',#186,.T.);
#125=EDGE_LOOP('',(#579,#580,#581,#582));
#126=EDGE_LOOP('',(#583,#584,#585,#586,#587,#588,#589,#590));
#127=EDGE_LOOP('',(#591,#592,#593,#594,#595,#596,#597,#598,#599,#600,#601,
#602));
#128=EDGE_LOOP('',(#603,#604,#605,#606));
#129=EDGE_LOOP('',(#607,#608,#609,#610,#611,#612,#613,#614));
#130=EDGE_LOOP('',(#615,#616,#617,#618));
#131=EDGE_LOOP('',(#619,#620,#621,#622,#623,#624,#625,#626,#627,#628,#629,
#630));
#132=EDGE_LOOP('',(#631,#632,#633,#634));
#133=EDGE_LOOP('',(#635,#636,#637,#638));
#134=EDGE_LOOP('',(#639,#640,#641,#642));
#135=EDGE_LOOP('',(#643,#644,#645,#646,#647,#648,#649,#650));
#136=EDGE_LOOP('',(#651,#652));
#137=EDGE_LOOP('',(#653,#654));
#138=EDGE_LOOP('',(#655,#656,#657,#658));
#139=EDGE_LOOP('',(#659,#660,#661,#662));
#140=EDGE_LOOP('',(#663,#664,#665,#666));
#141=EDGE_LOOP('',(#667,#668,#669,#670));
#142=EDGE_LOOP('',(#671,#672,#673,#674));
#143=EDGE_LOOP('',(#675,#676,#677,#678));
#144=EDGE_LOOP('',(#679,#680,#681,#682));
#145=EDGE_LOOP('',(#683,#684,#685,#686));
#146=EDGE_LOOP('',(#687));
#147=EDGE_LOOP('',(#688));
#148=EDGE_LOOP('',(#689,#690,#691,#692));
#149=EDGE_LOOP('',(#693,#694,#695,#696));
#150=EDGE_LOOP('',(#697,#698));
#151=EDGE_LOOP('',(#699,#700,#701,#702,#703,#704,#705,#706));
#152=EDGE_LOOP('',(#707,#708));
#153=EDGE_LOOP('',(#709,#710,#711,#712));
#154=EDGE_LOOP('',(#713,#714,#715,#716));
#155=EDGE_LOOP('',(#717,#718,#719,#720));
#156=EDGE_LOOP('',(#721,#722,#723,#724));
#157=EDGE_LOOP('',(#725,#726,#727,#728));
#158=EDGE_LOOP('',(#729,#730,#731,#732));
#159=EDGE_LOOP('',(#733,#734,#735,#736));
#160=EDGE_LOOP('',(#737,#738,#739,#740));
#161=EDGE_LOOP('',(#741));
#162=EDGE_LOOP('',(#742));
#163=EDGE_LOOP('',(#743,#744,#745,#746,#747,#748,#749,#750));
#164=EDGE_LOOP('',(#751,#752,#753,#754));
#165=EDGE_LOOP('',(#755,#756,#757,#758));
#166=EDGE_LOOP('',(#759,#760,#761,#762));
#167=EDGE_LOOP('',(#763,#764,#765,#766));
#168=EDGE_LOOP('',(#767,#768,#769,#770));
#169=EDGE_LOOP('',(#771,#772,#773,#774));
#170=EDGE_LOOP('',(#775,#776,#777,#778));
#171=EDGE_LOOP('',(#779,#780,#781,#782));
#172=EDGE_LOOP('',(#783,#784,#785,#786));
#173=EDGE_LOOP('',(#787,#788,#789,#790));
#174=EDGE_LOOP('',(#791,#792,#793,#794));
#175=EDGE_LOOP('',(#795,#796,#797,#798));
#176=EDGE_LOOP('',(#799,#800,#801,#802));
#177=EDGE_LOOP('',(#803,#804,#805,#806,#807,#808,#809,#810));
#178=EDGE_LOOP('',(#811));
#179=EDGE_LOOP('',(#812));
#180=EDGE_LOOP('',(#813));
#181=EDGE_LOOP('',(#814));
#182=EDGE_LOOP('',(#815,#816,#817,#818));
#183=EDGE_LOOP('',(#819,#820,#821,#822));
#184=EDGE_LOOP('',(#823,#824,#825,#826));
#185=EDGE_LOOP('',(#827,#828,#829,#830));
#186=EDGE_LOOP('',(#831,#832,#833,#834));
#187=LINE('',#1323,#263);
#188=LINE('',#1326,#264);
#189=LINE('',#1329,#265);
#190=LINE('',#1333,#266);
#191=LINE('',#1337,#267);
#192=LINE('',#1340,#268);
#193=LINE('',#1343,#269);
#194=LINE('',#1345,#270);
#195=LINE('',#1347,#271);
#196=LINE('',#1349,#272);
#197=LINE('',#1351,#273);
#198=LINE('',#1353,#274);
#199=LINE('',#1355,#275);
#200=LINE('',#1357,#276);
#201=LINE('',#1359,#277);
#202=LINE('',#1360,#278);
#203=LINE('',#1365,#279);
#204=LINE('',#1369,#280);
#205=LINE('',#1373,#281);
#206=LINE('',#1377,#282);
#207=LINE('',#1383,#283);
#208=LINE('',#1384,#284);
#209=LINE('',#1387,#285);
#210=LINE('',#1388,#286);
#211=LINE('',#1390,#287);
#212=LINE('',#1392,#288);
#213=LINE('',#1394,#289);
#214=LINE('',#1396,#290);
#215=LINE('',#1398,#291);
#216=LINE('',#1400,#292);
#217=LINE('',#1401,#293);
#218=LINE('',#1405,#294);
#219=LINE('',#1420,#295);
#220=LINE('',#1432,#296);
#221=LINE('',#1447,#297);
#222=LINE('',#1459,#298);
#223=LINE('',#1462,#299);
#224=LINE('',#1464,#300);
#225=LINE('',#1469,#301);
#226=LINE('',#1475,#302);
#227=LINE('',#1477,#303);
#228=LINE('',#1484,#304);
#229=LINE('',#1487,#305);
#230=LINE('',#1508,#306);
#231=LINE('',#1520,#307);
#232=LINE('',#1535,#308);
#233=LINE('',#1547,#309);
#234=LINE('',#1551,#310);
#235=LINE('',#1553,#311);
#236=LINE('',#1556,#312);
#237=LINE('',#1563,#313);
#238=LINE('',#1565,#314);
#239=LINE('',#1568,#315);
#240=LINE('',#1569,#316);
#241=LINE('',#1584,#317);
#242=LINE('',#1587,#318);
#243=LINE('',#1590,#319);
#244=LINE('',#1592,#320);
#245=LINE('',#1595,#321);
#246=LINE('',#1598,#322);
#247=LINE('',#1601,#323);
#248=LINE('',#1604,#324);
#249=LINE('',#1607,#325);
#250=LINE('',#1610,#326);
#251=LINE('',#1612,#327);
#252=LINE('',#1614,#328);
#253=LINE('',#1616,#329);
#254=LINE('',#1618,#330);
#255=LINE('',#1623,#331);
#256=LINE('',#1629,#332);
#257=LINE('',#1635,#333);
#258=LINE('',#1643,#334);
#259=LINE('',#1645,#335);
#260=LINE('',#1647,#336);
#261=LINE('',#1649,#337);
#262=LINE('',#1651,#338);
#263=VECTOR('',#1041,10.);
#264=VECTOR('',#1044,10.);
#265=VECTOR('',#1047,10.);
#266=VECTOR('',#1050,10.);
#267=VECTOR('',#1053,10.);
#268=VECTOR('',#1056,10.);
#269=VECTOR('',#1059,10.);
#270=VECTOR('',#1060,10.);
#271=VECTOR('',#1061,1000.);
#272=VECTOR('',#1062,10.);
#273=VECTOR('',#1063,10.);
#274=VECTOR('',#1064,10.);
#275=VECTOR('',#1065,10.);
#276=VECTOR('',#1066,10.);
#277=VECTOR('',#1067,10.);
#278=VECTOR('',#1068,10.);
#279=VECTOR('',#1073,10.);
#280=VECTOR('',#1078,10.);
#281=VECTOR('',#1081,10.);
#282=VECTOR('',#1084,10.);
#283=VECTOR('',#1091,10.);
#284=VECTOR('',#1092,10.);
#285=VECTOR('',#1095,10.);
#286=VECTOR('',#1096,10.);
#287=VECTOR('',#1097,10.);
#288=VECTOR('',#1098,10.);
#289=VECTOR('',#1099,10.);
#290=VECTOR('',#1100,10.);
#291=VECTOR('',#1101,10.);
#292=VECTOR('',#1102,10.);
#293=VECTOR('',#1103,10.);
#294=VECTOR('',#1108,10.);
#295=VECTOR('',#1111,10.);
#296=VECTOR('',#1112,10.);
#297=VECTOR('',#1115,10.);
#298=VECTOR('',#1116,10.);
#299=VECTOR('',#1121,10.);
#300=VECTOR('',#1124,10.);
#301=VECTOR('',#1131,10.);
#302=VECTOR('',#1142,10.);
#303=VECTOR('',#1145,10.);
#304=VECTOR('',#1156,10.);
#305=VECTOR('',#1161,10.);
#306=VECTOR('',#1172,10.);
#307=VECTOR('',#1173,10.);
#308=VECTOR('',#1176,10.);
#309=VECTOR('',#1177,10.);
#310=VECTOR('',#1184,10.);
#311=VECTOR('',#1187,10.);
#312=VECTOR('',#1192,10.);
#313=VECTOR('',#1203,10.);
#314=VECTOR('',#1206,10.);
#315=VECTOR('',#1209,10.);
#316=VECTOR('',#1210,10.);
#317=VECTOR('',#1235,10.);
#318=VECTOR('',#1238,10.);
#319=VECTOR('',#1241,10.);
#320=VECTOR('',#1244,10.);
#321=VECTOR('',#1247,10.);
#322=VECTOR('',#1250,10.);
#323=VECTOR('',#1253,10.);
#324=VECTOR('',#1256,10.);
#325=VECTOR('',#1259,10.);
#326=VECTOR('',#1262,10.);
#327=VECTOR('',#1265,10.);
#328=VECTOR('',#1268,10.);
#329=VECTOR('',#1271,10.);
#330=VECTOR('',#1274,10.);
#331=VECTOR('',#1279,1.50000000000012);
#332=VECTOR('',#1286,1.50000000000012);
#333=VECTOR('',#1293,1.50000000000013);
#334=VECTOR('',#1304,1.50000000000013);
#335=VECTOR('',#1307,1.4);
#336=VECTOR('',#1310,1.4);
#337=VECTOR('',#1313,1.4);
#338=VECTOR('',#1316,1.4);
#339=CIRCLE('',#934,3.);
#340=CIRCLE('',#935,3.);
#341=CIRCLE('',#937,1.);
#342=CIRCLE('',#938,1.);
#343=CIRCLE('',#939,3.);
#344=CIRCLE('',#942,3.);
#345=CIRCLE('',#943,3.);
#346=CIRCLE('',#945,3.);
#347=CIRCLE('',#946,1.);
#348=CIRCLE('',#947,1.);
#349=CIRCLE('',#949,3.);
#350=CIRCLE('',#952,3.);
#351=CIRCLE('',#956,2.04999999999998);
#352=CIRCLE('',#957,2.04999999999998);
#353=CIRCLE('',#961,1.);
#354=CIRCLE('',#971,1.);
#355=CIRCLE('',#975,1.4);
#356=CIRCLE('',#977,1.4);
#357=CIRCLE('',#981,2.04999999999998);
#358=CIRCLE('',#983,2.04999999999998);
#359=CIRCLE('',#990,1.);
#360=CIRCLE('',#996,1.);
#361=CIRCLE('',#1000,1.4);
#362=CIRCLE('',#1002,1.4);
#363=CIRCLE('',#1006,2.6);
#364=CIRCLE('',#1009,2.6);
#365=CIRCLE('',#1011,2.60000000000001);
#366=CIRCLE('',#1013,2.60000000000001);
#367=CIRCLE('',#1019,1.4);
#368=CIRCLE('',#1020,1.60000000000021);
#369=CIRCLE('',#1022,1.4);
#370=CIRCLE('',#1023,1.60000000000021);
#371=CIRCLE('',#1025,1.4);
#372=CIRCLE('',#1026,1.60000000000022);
#373=CIRCLE('',#1028,1.60000000000022);
#374=CIRCLE('',#1030,1.4);
#375=VERTEX_POINT('',#1319);
#376=VERTEX_POINT('',#1320);
#377=VERTEX_POINT('',#1322);
#378=VERTEX_POINT('',#1324);
#379=VERTEX_POINT('',#1328);
#380=VERTEX_POINT('',#1330);
#381=VERTEX_POINT('',#1332);
#382=VERTEX_POINT('',#1334);
#383=VERTEX_POINT('',#1336);
#384=VERTEX_POINT('',#1338);
#385=VERTEX_POINT('',#1342);
#386=VERTEX_POINT('',#1344);
#387=VERTEX_POINT('',#1346);
#388=VERTEX_POINT('',#1348);
#389=VERTEX_POINT('',#1350);
#390=VERTEX_POINT('',#1352);
#391=VERTEX_POINT('',#1354);
#392=VERTEX_POINT('',#1356);
#393=VERTEX_POINT('',#1358);
#394=VERTEX_POINT('',#1362);
#395=VERTEX_POINT('',#1364);
#396=VERTEX_POINT('',#1368);
#397=VERTEX_POINT('',#1370);
#398=VERTEX_POINT('',#1372);
#399=VERTEX_POINT('',#1374);
#400=VERTEX_POINT('',#1376);
#401=VERTEX_POINT('',#1380);
#402=VERTEX_POINT('',#1381);
#403=VERTEX_POINT('',#1386);
#404=VERTEX_POINT('',#1389);
#405=VERTEX_POINT('',#1391);
#406=VERTEX_POINT('',#1393);
#407=VERTEX_POINT('',#1395);
#408=VERTEX_POINT('',#1397);
#409=VERTEX_POINT('',#1399);
#410=VERTEX_POINT('',#1403);
#411=VERTEX_POINT('',#1407);
#412=VERTEX_POINT('',#1408);
#413=VERTEX_POINT('',#1419);
#414=VERTEX_POINT('',#1421);
#415=VERTEX_POINT('',#1434);
#416=VERTEX_POINT('',#1435);
#417=VERTEX_POINT('',#1446);
#418=VERTEX_POINT('',#1448);
#419=VERTEX_POINT('',#1468);
#420=VERTEX_POINT('',#1482);
#421=VERTEX_POINT('',#1489);
#422=VERTEX_POINT('',#1492);
#423=VERTEX_POINT('',#1495);
#424=VERTEX_POINT('',#1496);
#425=VERTEX_POINT('',#1507);
#426=VERTEX_POINT('',#1509);
#427=VERTEX_POINT('',#1522);
#428=VERTEX_POINT('',#1523);
#429=VERTEX_POINT('',#1534);
#430=VERTEX_POINT('',#1536);
#431=VERTEX_POINT('',#1561);
#432=VERTEX_POINT('',#1567);
#433=VERTEX_POINT('',#1577);
#434=VERTEX_POINT('',#1580);
#435=VERTEX_POINT('',#1586);
#436=VERTEX_POINT('',#1588);
#437=VERTEX_POINT('',#1594);
#438=VERTEX_POINT('',#1596);
#439=VERTEX_POINT('',#1600);
#440=VERTEX_POINT('',#1602);
#441=VERTEX_POINT('',#1606);
#442=VERTEX_POINT('',#1608);
#443=VERTEX_POINT('',#1620);
#444=VERTEX_POINT('',#1622);
#445=VERTEX_POINT('',#1626);
#446=VERTEX_POINT('',#1628);
#447=VERTEX_POINT('',#1632);
#448=VERTEX_POINT('',#1634);
#449=VERTEX_POINT('',#1638);
#450=VERTEX_POINT('',#1641);
#451=EDGE_CURVE('',#375,#376,#339,.T.);
#452=EDGE_CURVE('',#376,#377,#187,.T.);
#453=EDGE_CURVE('',#377,#378,#340,.T.);
#454=EDGE_CURVE('',#378,#375,#188,.T.);
#455=EDGE_CURVE('',#379,#377,#189,.T.);
#456=EDGE_CURVE('',#380,#379,#341,.T.);
#457=EDGE_CURVE('',#381,#380,#190,.T.);
#458=EDGE_CURVE('',#382,#381,#342,.T.);
#459=EDGE_CURVE('',#382,#383,#191,.T.);
#460=EDGE_CURVE('',#384,#383,#343,.T.);
#461=EDGE_CURVE('',#378,#384,#192,.T.);
#462=EDGE_CURVE('',#385,#376,#193,.T.);
#463=EDGE_CURVE('',#386,#385,#194,.T.);
#464=EDGE_CURVE('',#386,#387,#195,.T.);
#465=EDGE_CURVE('',#388,#387,#196,.T.);
#466=EDGE_CURVE('',#389,#388,#197,.T.);
#467=EDGE_CURVE('',#390,#389,#198,.T.);
#468=EDGE_CURVE('',#391,#390,#199,.T.);
#469=EDGE_CURVE('',#392,#391,#200,.T.);
#470=EDGE_CURVE('',#393,#392,#201,.T.);
#471=EDGE_CURVE('',#379,#393,#202,.T.);
#472=EDGE_CURVE('',#385,#394,#344,.T.);
#473=EDGE_CURVE('',#394,#395,#203,.T.);
#474=EDGE_CURVE('',#395,#386,#345,.T.);
#475=EDGE_CURVE('',#396,#395,#204,.T.);
#476=EDGE_CURVE('',#397,#396,#346,.T.);
#477=EDGE_CURVE('',#398,#397,#205,.T.);
#478=EDGE_CURVE('',#399,#398,#347,.T.);
#479=EDGE_CURVE('',#400,#399,#206,.T.);
#480=EDGE_CURVE('',#387,#400,#348,.T.);
#481=EDGE_CURVE('',#401,#402,#349,.T.);
#482=EDGE_CURVE('',#402,#397,#207,.T.);
#483=EDGE_CURVE('',#396,#401,#208,.T.);
#484=EDGE_CURVE('',#403,#402,#209,.T.);
#485=EDGE_CURVE('',#383,#403,#210,.T.);
#486=EDGE_CURVE('',#404,#382,#211,.T.);
#487=EDGE_CURVE('',#405,#404,#212,.T.);
#488=EDGE_CURVE('',#406,#405,#213,.T.);
#489=EDGE_CURVE('',#407,#406,#214,.T.);
#490=EDGE_CURVE('',#408,#407,#215,.T.);
#491=EDGE_CURVE('',#409,#408,#216,.T.);
#492=EDGE_CURVE('',#398,#409,#217,.T.);
#493=EDGE_CURVE('',#403,#410,#350,.T.);
#494=EDGE_CURVE('',#410,#384,#218,.T.);
#495=EDGE_CURVE('',#411,#412,#35,.F.);
#496=EDGE_CURVE('',#412,#413,#219,.T.);
#497=EDGE_CURVE('',#414,#413,#36,.T.);
#498=EDGE_CURVE('',#414,#411,#220,.T.);
#499=EDGE_CURVE('',#415,#416,#37,.F.);
#500=EDGE_CURVE('',#416,#417,#221,.T.);
#501=EDGE_CURVE('',#418,#417,#38,.T.);
#502=EDGE_CURVE('',#418,#415,#222,.T.);
#503=EDGE_CURVE('',#417,#416,#351,.T.);
#504=EDGE_CURVE('',#414,#415,#223,.F.);
#505=EDGE_CURVE('',#413,#412,#352,.T.);
#506=EDGE_CURVE('',#418,#411,#224,.T.);
#507=EDGE_CURVE('',#414,#419,#225,.T.);
#508=EDGE_CURVE('',#390,#419,#353,.T.);
#509=EDGE_CURVE('',#389,#414,#27,.T.);
#510=EDGE_CURVE('',#388,#411,#28,.T.);
#511=EDGE_CURVE('',#400,#411,#226,.T.);
#512=EDGE_CURVE('',#418,#399,#227,.T.);
#513=EDGE_CURVE('',#409,#418,#29,.T.);
#514=EDGE_CURVE('',#408,#415,#30,.T.);
#515=EDGE_CURVE('',#420,#407,#354,.T.);
#516=EDGE_CURVE('',#420,#415,#228,.T.);
#517=EDGE_CURVE('',#419,#420,#229,.T.);
#518=EDGE_CURVE('',#421,#421,#355,.T.);
#519=EDGE_CURVE('',#422,#422,#356,.T.);
#520=EDGE_CURVE('',#423,#424,#39,.F.);
#521=EDGE_CURVE('',#424,#425,#230,.T.);
#522=EDGE_CURVE('',#426,#425,#40,.T.);
#523=EDGE_CURVE('',#426,#423,#231,.T.);
#524=EDGE_CURVE('',#427,#428,#41,.F.);
#525=EDGE_CURVE('',#428,#429,#232,.T.);
#526=EDGE_CURVE('',#430,#429,#42,.T.);
#527=EDGE_CURVE('',#430,#427,#233,.T.);
#528=EDGE_CURVE('',#429,#428,#357,.T.);
#529=EDGE_CURVE('',#426,#427,#234,.T.);
#530=EDGE_CURVE('',#425,#424,#358,.T.);
#531=EDGE_CURVE('',#430,#423,#235,.F.);
#532=EDGE_CURVE('',#426,#380,#236,.T.);
#533=EDGE_CURVE('',#393,#426,#31,.T.);
#534=EDGE_CURVE('',#392,#423,#32,.T.);
#535=EDGE_CURVE('',#431,#391,#359,.T.);
#536=EDGE_CURVE('',#431,#423,#237,.T.);
#537=EDGE_CURVE('',#381,#427,#238,.T.);
#538=EDGE_CURVE('',#432,#431,#239,.T.);
#539=EDGE_CURVE('',#430,#432,#240,.T.);
#540=EDGE_CURVE('',#427,#404,#33,.T.);
#541=EDGE_CURVE('',#406,#432,#360,.T.);
#542=EDGE_CURVE('',#405,#430,#34,.T.);
#543=EDGE_CURVE('',#433,#433,#361,.T.);
#544=EDGE_CURVE('',#434,#434,#362,.T.);
#545=EDGE_CURVE('',#375,#410,#241,.T.);
#546=EDGE_CURVE('',#435,#375,#242,.T.);
#547=EDGE_CURVE('',#435,#436,#363,.T.);
#548=EDGE_CURVE('',#376,#436,#243,.T.);
#549=EDGE_CURVE('',#401,#394,#244,.T.);
#550=EDGE_CURVE('',#385,#437,#245,.T.);
#551=EDGE_CURVE('',#437,#438,#364,.T.);
#552=EDGE_CURVE('',#394,#438,#246,.T.);
#553=EDGE_CURVE('',#401,#439,#247,.T.);
#554=EDGE_CURVE('',#439,#440,#365,.T.);
#555=EDGE_CURVE('',#402,#440,#248,.T.);
#556=EDGE_CURVE('',#403,#441,#249,.T.);
#557=EDGE_CURVE('',#441,#442,#366,.T.);
#558=EDGE_CURVE('',#410,#442,#250,.T.);
#559=EDGE_CURVE('',#436,#437,#251,.T.);
#560=EDGE_CURVE('',#438,#439,#252,.T.);
#561=EDGE_CURVE('',#440,#441,#253,.T.);
#562=EDGE_CURVE('',#442,#435,#254,.T.);
#563=EDGE_CURVE('',#443,#443,#367,.T.);
#564=EDGE_CURVE('',#443,#444,#255,.T.);
#565=EDGE_CURVE('',#444,#444,#368,.T.);
#566=EDGE_CURVE('',#445,#445,#369,.T.);
#567=EDGE_CURVE('',#445,#446,#256,.T.);
#568=EDGE_CURVE('',#446,#446,#370,.T.);
#569=EDGE_CURVE('',#447,#447,#371,.T.);
#570=EDGE_CURVE('',#447,#448,#257,.T.);
#571=EDGE_CURVE('',#448,#448,#372,.T.);
#572=EDGE_CURVE('',#449,#449,#373,.T.);
#573=EDGE_CURVE('',#450,#450,#374,.T.);
#574=EDGE_CURVE('',#450,#449,#258,.T.);
#575=EDGE_CURVE('',#443,#434,#259,.T.);
#576=EDGE_CURVE('',#445,#422,#260,.T.);
#577=EDGE_CURVE('',#447,#421,#261,.T.);
#578=EDGE_CURVE('',#450,#433,#262,.T.);
#579=ORIENTED_EDGE('',*,*,#451,.T.);
#580=ORIENTED_EDGE('',*,*,#452,.T.);
#581=ORIENTED_EDGE('',*,*,#453,.T.);
#582=ORIENTED_EDGE('',*,*,#454,.T.);
#583=ORIENTED_EDGE('',*,*,#453,.F.);
#584=ORIENTED_EDGE('',*,*,#455,.F.);
#585=ORIENTED_EDGE('',*,*,#456,.F.);
#586=ORIENTED_EDGE('',*,*,#457,.F.);
#587=ORIENTED_EDGE('',*,*,#458,.F.);
#588=ORIENTED_EDGE('',*,*,#459,.T.);
#589=ORIENTED_EDGE('',*,*,#460,.F.);
#590=ORIENTED_EDGE('',*,*,#461,.F.);
#591=ORIENTED_EDGE('',*,*,#452,.F.);
#592=ORIENTED_EDGE('',*,*,#462,.F.);
#593=ORIENTED_EDGE('',*,*,#463,.F.);
#594=ORIENTED_EDGE('',*,*,#464,.T.);
#595=ORIENTED_EDGE('',*,*,#465,.F.);
#596=ORIENTED_EDGE('',*,*,#466,.F.);
#597=ORIENTED_EDGE('',*,*,#467,.F.);
#598=ORIENTED_EDGE('',*,*,#468,.F.);
#599=ORIENTED_EDGE('',*,*,#469,.F.);
#600=ORIENTED_EDGE('',*,*,#470,.F.);
#601=ORIENTED_EDGE('',*,*,#471,.F.);
#602=ORIENTED_EDGE('',*,*,#455,.T.);
#603=ORIENTED_EDGE('',*,*,#472,.T.);
#604=ORIENTED_EDGE('',*,*,#473,.T.);
#605=ORIENTED_EDGE('',*,*,#474,.T.);
#606=ORIENTED_EDGE('',*,*,#463,.T.);
#607=ORIENTED_EDGE('',*,*,#474,.F.);
#608=ORIENTED_EDGE('',*,*,#475,.F.);
#609=ORIENTED_EDGE('',*,*,#476,.F.);
#610=ORIENTED_EDGE('',*,*,#477,.F.);
#611=ORIENTED_EDGE('',*,*,#478,.F.);
#612=ORIENTED_EDGE('',*,*,#479,.F.);
#613=ORIENTED_EDGE('',*,*,#480,.F.);
#614=ORIENTED_EDGE('',*,*,#464,.F.);
#615=ORIENTED_EDGE('',*,*,#481,.T.);
#616=ORIENTED_EDGE('',*,*,#482,.T.);
#617=ORIENTED_EDGE('',*,*,#476,.T.);
#618=ORIENTED_EDGE('',*,*,#483,.T.);
#619=ORIENTED_EDGE('',*,*,#482,.F.);
#620=ORIENTED_EDGE('',*,*,#484,.F.);
#621=ORIENTED_EDGE('',*,*,#485,.F.);
#622=ORIENTED_EDGE('',*,*,#459,.F.);
#623=ORIENTED_EDGE('',*,*,#486,.F.);
#624=ORIENTED_EDGE('',*,*,#487,.F.);
#625=ORIENTED_EDGE('',*,*,#488,.F.);
#626=ORIENTED_EDGE('',*,*,#489,.F.);
#627=ORIENTED_EDGE('',*,*,#490,.F.);
#628=ORIENTED_EDGE('',*,*,#491,.F.);
#629=ORIENTED_EDGE('',*,*,#492,.F.);
#630=ORIENTED_EDGE('',*,*,#477,.T.);
#631=ORIENTED_EDGE('',*,*,#493,.T.);
#632=ORIENTED_EDGE('',*,*,#494,.T.);
#633=ORIENTED_EDGE('',*,*,#460,.T.);
#634=ORIENTED_EDGE('',*,*,#485,.T.);
#635=ORIENTED_EDGE('',*,*,#495,.T.);
#636=ORIENTED_EDGE('',*,*,#496,.T.);
#637=ORIENTED_EDGE('',*,*,#497,.F.);
#638=ORIENTED_EDGE('',*,*,#498,.T.);
#639=ORIENTED_EDGE('',*,*,#499,.T.);
#640=ORIENTED_EDGE('',*,*,#500,.T.);
#641=ORIENTED_EDGE('',*,*,#501,.F.);
#642=ORIENTED_EDGE('',*,*,#502,.T.);
#643=ORIENTED_EDGE('',*,*,#503,.T.);
#644=ORIENTED_EDGE('',*,*,#499,.F.);
#645=ORIENTED_EDGE('',*,*,#504,.F.);
#646=ORIENTED_EDGE('',*,*,#497,.T.);
#647=ORIENTED_EDGE('',*,*,#505,.T.);
#648=ORIENTED_EDGE('',*,*,#495,.F.);
#649=ORIENTED_EDGE('',*,*,#506,.F.);
#650=ORIENTED_EDGE('',*,*,#501,.T.);
#651=ORIENTED_EDGE('',*,*,#500,.F.);
#652=ORIENTED_EDGE('',*,*,#503,.F.);
#653=ORIENTED_EDGE('',*,*,#496,.F.);
#654=ORIENTED_EDGE('',*,*,#505,.F.);
#655=ORIENTED_EDGE('',*,*,#507,.T.);
#656=ORIENTED_EDGE('',*,*,#508,.F.);
#657=ORIENTED_EDGE('',*,*,#467,.T.);
#658=ORIENTED_EDGE('',*,*,#509,.T.);
#659=ORIENTED_EDGE('',*,*,#498,.F.);
#660=ORIENTED_EDGE('',*,*,#509,.F.);
#661=ORIENTED_EDGE('',*,*,#466,.T.);
#662=ORIENTED_EDGE('',*,*,#510,.T.);
#663=ORIENTED_EDGE('',*,*,#465,.T.);
#664=ORIENTED_EDGE('',*,*,#480,.T.);
#665=ORIENTED_EDGE('',*,*,#511,.T.);
#666=ORIENTED_EDGE('',*,*,#510,.F.);
#667=ORIENTED_EDGE('',*,*,#512,.T.);
#668=ORIENTED_EDGE('',*,*,#478,.T.);
#669=ORIENTED_EDGE('',*,*,#492,.T.);
#670=ORIENTED_EDGE('',*,*,#513,.T.);
#671=ORIENTED_EDGE('',*,*,#502,.F.);
#672=ORIENTED_EDGE('',*,*,#513,.F.);
#673=ORIENTED_EDGE('',*,*,#491,.T.);
#674=ORIENTED_EDGE('',*,*,#514,.T.);
#675=ORIENTED_EDGE('',*,*,#490,.T.);
#676=ORIENTED_EDGE('',*,*,#515,.F.);
#677=ORIENTED_EDGE('',*,*,#516,.T.);
#678=ORIENTED_EDGE('',*,*,#514,.F.);
#679=ORIENTED_EDGE('',*,*,#511,.F.);
#680=ORIENTED_EDGE('',*,*,#479,.T.);
#681=ORIENTED_EDGE('',*,*,#512,.F.);
#682=ORIENTED_EDGE('',*,*,#506,.T.);
#683=ORIENTED_EDGE('',*,*,#507,.F.);
#684=ORIENTED_EDGE('',*,*,#504,.T.);
#685=ORIENTED_EDGE('',*,*,#516,.F.);
#686=ORIENTED_EDGE('',*,*,#517,.F.);
#687=ORIENTED_EDGE('',*,*,#518,.F.);
#688=ORIENTED_EDGE('',*,*,#519,.F.);
#689=ORIENTED_EDGE('',*,*,#520,.T.);
#690=ORIENTED_EDGE('',*,*,#521,.T.);
#691=ORIENTED_EDGE('',*,*,#522,.F.);
#692=ORIENTED_EDGE('',*,*,#523,.T.);
#693=ORIENTED_EDGE('',*,*,#524,.T.);
#694=ORIENTED_EDGE('',*,*,#525,.T.);
#695=ORIENTED_EDGE('',*,*,#526,.F.);
#696=ORIENTED_EDGE('',*,*,#527,.T.);
#697=ORIENTED_EDGE('',*,*,#525,.F.);
#698=ORIENTED_EDGE('',*,*,#528,.F.);
#699=ORIENTED_EDGE('',*,*,#528,.T.);
#700=ORIENTED_EDGE('',*,*,#524,.F.);
#701=ORIENTED_EDGE('',*,*,#529,.F.);
#702=ORIENTED_EDGE('',*,*,#522,.T.);
#703=ORIENTED_EDGE('',*,*,#530,.T.);
#704=ORIENTED_EDGE('',*,*,#520,.F.);
#705=ORIENTED_EDGE('',*,*,#531,.F.);
#706=ORIENTED_EDGE('',*,*,#526,.T.);
#707=ORIENTED_EDGE('',*,*,#521,.F.);
#708=ORIENTED_EDGE('',*,*,#530,.F.);
#709=ORIENTED_EDGE('',*,*,#532,.T.);
#710=ORIENTED_EDGE('',*,*,#456,.T.);
#711=ORIENTED_EDGE('',*,*,#471,.T.);
#712=ORIENTED_EDGE('',*,*,#533,.T.);
#713=ORIENTED_EDGE('',*,*,#470,.T.);
#714=ORIENTED_EDGE('',*,*,#534,.T.);
#715=ORIENTED_EDGE('',*,*,#523,.F.);
#716=ORIENTED_EDGE('',*,*,#533,.F.);
#717=ORIENTED_EDGE('',*,*,#469,.T.);
#718=ORIENTED_EDGE('',*,*,#535,.F.);
#719=ORIENTED_EDGE('',*,*,#536,.T.);
#720=ORIENTED_EDGE('',*,*,#534,.F.);
#721=ORIENTED_EDGE('',*,*,#532,.F.);
#722=ORIENTED_EDGE('',*,*,#529,.T.);
#723=ORIENTED_EDGE('',*,*,#537,.F.);
#724=ORIENTED_EDGE('',*,*,#457,.T.);
#725=ORIENTED_EDGE('',*,*,#536,.F.);
#726=ORIENTED_EDGE('',*,*,#538,.F.);
#727=ORIENTED_EDGE('',*,*,#539,.F.);
#728=ORIENTED_EDGE('',*,*,#531,.T.);
#729=ORIENTED_EDGE('',*,*,#486,.T.);
#730=ORIENTED_EDGE('',*,*,#458,.T.);
#731=ORIENTED_EDGE('',*,*,#537,.T.);
#732=ORIENTED_EDGE('',*,*,#540,.T.);
#733=ORIENTED_EDGE('',*,*,#539,.T.);
#734=ORIENTED_EDGE('',*,*,#541,.F.);
#735=ORIENTED_EDGE('',*,*,#488,.T.);
#736=ORIENTED_EDGE('',*,*,#542,.T.);
#737=ORIENTED_EDGE('',*,*,#527,.F.);
#738=ORIENTED_EDGE('',*,*,#542,.F.);
#739=ORIENTED_EDGE('',*,*,#487,.T.);
#740=ORIENTED_EDGE('',*,*,#540,.F.);
#741=ORIENTED_EDGE('',*,*,#543,.F.);
#742=ORIENTED_EDGE('',*,*,#544,.F.);
#743=ORIENTED_EDGE('',*,*,#515,.T.);
#744=ORIENTED_EDGE('',*,*,#489,.T.);
#745=ORIENTED_EDGE('',*,*,#541,.T.);
#746=ORIENTED_EDGE('',*,*,#538,.T.);
#747=ORIENTED_EDGE('',*,*,#535,.T.);
#748=ORIENTED_EDGE('',*,*,#468,.T.);
#749=ORIENTED_EDGE('',*,*,#508,.T.);
#750=ORIENTED_EDGE('',*,*,#517,.T.);
#751=ORIENTED_EDGE('',*,*,#454,.F.);
#752=ORIENTED_EDGE('',*,*,#461,.T.);
#753=ORIENTED_EDGE('',*,*,#494,.F.);
#754=ORIENTED_EDGE('',*,*,#545,.F.);
#755=ORIENTED_EDGE('',*,*,#451,.F.);
#756=ORIENTED_EDGE('',*,*,#546,.F.);
#757=ORIENTED_EDGE('',*,*,#547,.T.);
#758=ORIENTED_EDGE('',*,*,#548,.F.);
#759=ORIENTED_EDGE('',*,*,#473,.F.);
#760=ORIENTED_EDGE('',*,*,#549,.F.);
#761=ORIENTED_EDGE('',*,*,#483,.F.);
#762=ORIENTED_EDGE('',*,*,#475,.T.);
#763=ORIENTED_EDGE('',*,*,#472,.F.);
#764=ORIENTED_EDGE('',*,*,#550,.T.);
#765=ORIENTED_EDGE('',*,*,#551,.T.);
#766=ORIENTED_EDGE('',*,*,#552,.F.);
#767=ORIENTED_EDGE('',*,*,#481,.F.);
#768=ORIENTED_EDGE('',*,*,#553,.T.);
#769=ORIENTED_EDGE('',*,*,#554,.T.);
#770=ORIENTED_EDGE('',*,*,#555,.F.);
#771=ORIENTED_EDGE('',*,*,#493,.F.);
#772=ORIENTED_EDGE('',*,*,#556,.T.);
#773=ORIENTED_EDGE('',*,*,#557,.T.);
#774=ORIENTED_EDGE('',*,*,#558,.F.);
#775=ORIENTED_EDGE('',*,*,#550,.F.);
#776=ORIENTED_EDGE('',*,*,#462,.T.);
#777=ORIENTED_EDGE('',*,*,#548,.T.);
#778=ORIENTED_EDGE('',*,*,#559,.T.);
#779=ORIENTED_EDGE('',*,*,#552,.T.);
#780=ORIENTED_EDGE('',*,*,#560,.T.);
#781=ORIENTED_EDGE('',*,*,#553,.F.);
#782=ORIENTED_EDGE('',*,*,#549,.T.);
#783=ORIENTED_EDGE('',*,*,#556,.F.);
#784=ORIENTED_EDGE('',*,*,#484,.T.);
#785=ORIENTED_EDGE('',*,*,#555,.T.);
#786=ORIENTED_EDGE('',*,*,#561,.T.);
#787=ORIENTED_EDGE('',*,*,#558,.T.);
#788=ORIENTED_EDGE('',*,*,#562,.T.);
#789=ORIENTED_EDGE('',*,*,#546,.T.);
#790=ORIENTED_EDGE('',*,*,#545,.T.);
#791=ORIENTED_EDGE('',*,*,#563,.T.);
#792=ORIENTED_EDGE('',*,*,#564,.T.);
#793=ORIENTED_EDGE('',*,*,#565,.T.);
#794=ORIENTED_EDGE('',*,*,#564,.F.);
#795=ORIENTED_EDGE('',*,*,#566,.T.);
#796=ORIENTED_EDGE('',*,*,#567,.T.);
#797=ORIENTED_EDGE('',*,*,#568,.T.);
#798=ORIENTED_EDGE('',*,*,#567,.F.);
#799=ORIENTED_EDGE('',*,*,#569,.T.);
#800=ORIENTED_EDGE('',*,*,#570,.T.);
#801=ORIENTED_EDGE('',*,*,#571,.T.);
#802=ORIENTED_EDGE('',*,*,#570,.F.);
#803=ORIENTED_EDGE('',*,*,#562,.F.);
#804=ORIENTED_EDGE('',*,*,#557,.F.);
#805=ORIENTED_EDGE('',*,*,#561,.F.);
#806=ORIENTED_EDGE('',*,*,#554,.F.);
#807=ORIENTED_EDGE('',*,*,#560,.F.);
#808=ORIENTED_EDGE('',*,*,#551,.F.);
#809=ORIENTED_EDGE('',*,*,#559,.F.);
#810=ORIENTED_EDGE('',*,*,#547,.F.);
#811=ORIENTED_EDGE('',*,*,#565,.F.);
#812=ORIENTED_EDGE('',*,*,#568,.F.);
#813=ORIENTED_EDGE('',*,*,#571,.F.);
#814=ORIENTED_EDGE('',*,*,#572,.F.);
#815=ORIENTED_EDGE('',*,*,#573,.T.);
#816=ORIENTED_EDGE('',*,*,#574,.T.);
#817=ORIENTED_EDGE('',*,*,#572,.T.);
#818=ORIENTED_EDGE('',*,*,#574,.F.);
#819=ORIENTED_EDGE('',*,*,#563,.F.);
#820=ORIENTED_EDGE('',*,*,#575,.T.);
#821=ORIENTED_EDGE('',*,*,#544,.T.);
#822=ORIENTED_EDGE('',*,*,#575,.F.);
#823=ORIENTED_EDGE('',*,*,#566,.F.);
#824=ORIENTED_EDGE('',*,*,#576,.T.);
#825=ORIENTED_EDGE('',*,*,#519,.T.);
#826=ORIENTED_EDGE('',*,*,#576,.F.);
#827=ORIENTED_EDGE('',*,*,#569,.F.);
#828=ORIENTED_EDGE('',*,*,#577,.T.);
#829=ORIENTED_EDGE('',*,*,#518,.T.);
#830=ORIENTED_EDGE('',*,*,#577,.F.);
#831=ORIENTED_EDGE('',*,*,#573,.F.);
#832=ORIENTED_EDGE('',*,*,#578,.T.);
#833=ORIENTED_EDGE('',*,*,#543,.T.);
#834=ORIENTED_EDGE('',*,*,#578,.F.);
#835=CYLINDRICAL_SURFACE('',#933,3.);
#836=CYLINDRICAL_SURFACE('',#941,3.);
#837=CYLINDRICAL_SURFACE('',#948,3.);
#838=CYLINDRICAL_SURFACE('',#951,3.);
#839=CYLINDRICAL_SURFACE('',#953,0.4);
#840=CYLINDRICAL_SURFACE('',#954,0.4);
#841=CYLINDRICAL_SURFACE('',#955,2.04999999999998);
#842=CYLINDRICAL_SURFACE('',#960,1.);
#843=CYLINDRICAL_SURFACE('',#963,1.);
#844=CYLINDRICAL_SURFACE('',#965,1.);
#845=CYLINDRICAL_SURFACE('',#966,1.);
#846=CYLINDRICAL_SURFACE('',#968,1.);
#847=CYLINDRICAL_SURFACE('',#970,1.);
#848=CYLINDRICAL_SURFACE('',#978,0.4);
#849=CYLINDRICAL_SURFACE('',#979,0.4);
#850=CYLINDRICAL_SURFACE('',#982,2.04999999999998);
#851=CYLINDRICAL_SURFACE('',#985,1.);
#852=CYLINDRICAL_SURFACE('',#987,1.);
#853=CYLINDRICAL_SURFACE('',#989,1.);
#854=CYLINDRICAL_SURFACE('',#993,1.);
#855=CYLINDRICAL_SURFACE('',#995,1.);
#856=CYLINDRICAL_SURFACE('',#998,1.);
#857=CYLINDRICAL_SURFACE('',#1031,1.4);
#858=CYLINDRICAL_SURFACE('',#1032,1.4);
#859=CYLINDRICAL_SURFACE('',#1033,1.4);
#860=CYLINDRICAL_SURFACE('',#1034,1.4);
#861=ADVANCED_FACE('',(#67),#835,.T.);
#862=ADVANCED_FACE('',(#68),#43,.T.);
#863=ADVANCED_FACE('',(#69),#44,.T.);
#864=ADVANCED_FACE('',(#70),#836,.T.);
#865=ADVANCED_FACE('',(#71),#45,.T.);
#866=ADVANCED_FACE('',(#72),#837,.T.);
#867=ADVANCED_FACE('',(#73),#46,.F.);
#868=ADVANCED_FACE('',(#74),#838,.T.);
#869=ADVANCED_FACE('',(#75),#839,.T.);
#870=ADVANCED_FACE('',(#76),#840,.T.);
#871=ADVANCED_FACE('',(#77),#841,.F.);
#872=ADVANCED_FACE('',(#78),#47,.F.);
#873=ADVANCED_FACE('',(#79),#48,.F.);
#874=ADVANCED_FACE('',(#80),#842,.T.);
#875=ADVANCED_FACE('',(#81),#843,.T.);
#876=ADVANCED_FACE('',(#82),#844,.T.);
#877=ADVANCED_FACE('',(#83),#845,.T.);
#878=ADVANCED_FACE('',(#84),#846,.T.);
#879=ADVANCED_FACE('',(#85),#847,.T.);
#880=ADVANCED_FACE('',(#86),#49,.F.);
#881=ADVANCED_FACE('',(#87),#50,.F.);
#882=ADVANCED_FACE('',(#88),#51,.T.);
#883=ADVANCED_FACE('',(#89),#52,.T.);
#884=ADVANCED_FACE('',(#90),#848,.T.);
#885=ADVANCED_FACE('',(#91),#849,.T.);
#886=ADVANCED_FACE('',(#92),#53,.F.);
#887=ADVANCED_FACE('',(#93),#850,.F.);
#888=ADVANCED_FACE('',(#94),#54,.F.);
#889=ADVANCED_FACE('',(#95),#851,.T.);
#890=ADVANCED_FACE('',(#96),#852,.T.);
#891=ADVANCED_FACE('',(#97),#853,.T.);
#892=ADVANCED_FACE('',(#98),#55,.F.);
#893=ADVANCED_FACE('',(#99),#56,.F.);
#894=ADVANCED_FACE('',(#100),#854,.T.);
#895=ADVANCED_FACE('',(#101),#855,.T.);
#896=ADVANCED_FACE('',(#102),#856,.T.);
#897=ADVANCED_FACE('',(#103),#57,.T.);
#898=ADVANCED_FACE('',(#104),#58,.T.);
#899=ADVANCED_FACE('',(#105),#59,.F.);
#900=ADVANCED_FACE('',(#106),#60,.T.);
#901=ADVANCED_FACE('',(#107),#19,.T.);
#902=ADVANCED_FACE('',(#108),#61,.T.);
#903=ADVANCED_FACE('',(#109),#20,.T.);
#904=ADVANCED_FACE('',(#110),#21,.T.);
#905=ADVANCED_FACE('',(#111),#22,.T.);
#906=ADVANCED_FACE('',(#112),#62,.T.);
#907=ADVANCED_FACE('',(#113),#63,.T.);
#908=ADVANCED_FACE('',(#114),#64,.T.);
#909=ADVANCED_FACE('',(#115),#65,.T.);
#910=ADVANCED_FACE('',(#116),#23,.F.);
#911=ADVANCED_FACE('',(#117),#24,.F.);
#912=ADVANCED_FACE('',(#118),#25,.F.);
#913=ADVANCED_FACE('',(#119,#15,#16,#17,#18),#66,.T.);
#914=ADVANCED_FACE('',(#120),#26,.F.);
#915=ADVANCED_FACE('',(#121),#857,.F.);
#916=ADVANCED_FACE('',(#122),#858,.F.);
#917=ADVANCED_FACE('',(#123),#859,.F.);
#918=ADVANCED_FACE('',(#124),#860,.F.);
#919=CLOSED_SHELL('',(#861,#862,#863,#864,#865,#866,#867,#868,#869,#870,
#871,#872,#873,#874,#875,#876,#877,#878,#879,#880,#881,#882,#883,#884,#885,
#886,#887,#888,#889,#890,#891,#892,#893,#894,#895,#896,#897,#898,#899,#900,
#901,#902,#903,#904,#905,#906,#907,#908,#909,#910,#911,#912,#913,#914,#915,
#916,#917,#918));
#920=DERIVED_UNIT_ELEMENT(#922,1.);
#921=DERIVED_UNIT_ELEMENT(#1657,-3.);
#922=(
MASS_UNIT()
NAMED_UNIT(*)
SI_UNIT(.KILO.,.GRAM.)
);
#923=DERIVED_UNIT((#920,#921));
#924=MEASURE_REPRESENTATION_ITEM('density measure',
POSITIVE_RATIO_MEASURE(7850.),#923);
#925=PROPERTY_DEFINITION_REPRESENTATION(#930,#927);
#926=PROPERTY_DEFINITION_REPRESENTATION(#931,#928);
#927=REPRESENTATION('material name',(#929),#1654);
#928=REPRESENTATION('density',(#924),#1654);
#929=DESCRIPTIVE_REPRESENTATION_ITEM('Steel','Steel');
#930=PROPERTY_DEFINITION('material property','material name',#1664);
#931=PROPERTY_DEFINITION('material property','density of part',#1664);
#932=AXIS2_PLACEMENT_3D('',#1317,#1035,#1036);
#933=AXIS2_PLACEMENT_3D('',#1318,#1037,#1038);
#934=AXIS2_PLACEMENT_3D('',#1321,#1039,#1040);
#935=AXIS2_PLACEMENT_3D('',#1325,#1042,#1043);
#936=AXIS2_PLACEMENT_3D('',#1327,#1045,#1046);
#937=AXIS2_PLACEMENT_3D('',#1331,#1048,#1049);
#938=AXIS2_PLACEMENT_3D('',#1335,#1051,#1052);
#939=AXIS2_PLACEMENT_3D('',#1339,#1054,#1055);
#940=AXIS2_PLACEMENT_3D('',#1341,#1057,#1058);
#941=AXIS2_PLACEMENT_3D('',#1361,#1069,#1070);
#942=AXIS2_PLACEMENT_3D('',#1363,#1071,#1072);
#943=AXIS2_PLACEMENT_3D('',#1366,#1074,#1075);
#944=AXIS2_PLACEMENT_3D('',#1367,#1076,#1077);
#945=AXIS2_PLACEMENT_3D('',#1371,#1079,#1080);
#946=AXIS2_PLACEMENT_3D('',#1375,#1082,#1083);
#947=AXIS2_PLACEMENT_3D('',#1378,#1085,#1086);
#948=AXIS2_PLACEMENT_3D('',#1379,#1087,#1088);
#949=AXIS2_PLACEMENT_3D('',#1382,#1089,#1090);
#950=AXIS2_PLACEMENT_3D('',#1385,#1093,#1094);
#951=AXIS2_PLACEMENT_3D('',#1402,#1104,#1105);
#952=AXIS2_PLACEMENT_3D('',#1404,#1106,#1107);
#953=AXIS2_PLACEMENT_3D('',#1406,#1109,#1110);
#954=AXIS2_PLACEMENT_3D('',#1433,#1113,#1114);
#955=AXIS2_PLACEMENT_3D('',#1460,#1117,#1118);
#956=AXIS2_PLACEMENT_3D('',#1461,#1119,#1120);
#957=AXIS2_PLACEMENT_3D('',#1463,#1122,#1123);
#958=AXIS2_PLACEMENT_3D('',#1465,#1125,#1126);
#959=AXIS2_PLACEMENT_3D('',#1466,#1127,#1128);
#960=AXIS2_PLACEMENT_3D('',#1467,#1129,#1130);
#961=AXIS2_PLACEMENT_3D('',#1470,#1132,#1133);
#962=AXIS2_PLACEMENT_3D('',#1471,#1134,#1135);
#963=AXIS2_PLACEMENT_3D('',#1472,#1136,#1137);
#964=AXIS2_PLACEMENT_3D('',#1473,#1138,#1139);
#965=AXIS2_PLACEMENT_3D('',#1474,#1140,#1141);
#966=AXIS2_PLACEMENT_3D('',#1476,#1143,#1144);
#967=AXIS2_PLACEMENT_3D('',#1478,#1146,#1147);
#968=AXIS2_PLACEMENT_3D('',#1479,#1148,#1149);
#969=AXIS2_PLACEMENT_3D('',#1480,#1150,#1151);
#970=AXIS2_PLACEMENT_3D('',#1481,#1152,#1153);
#971=AXIS2_PLACEMENT_3D('',#1483,#1154,#1155);
#972=AXIS2_PLACEMENT_3D('',#1485,#1157,#1158);
#973=AXIS2_PLACEMENT_3D('',#1486,#1159,#1160);
#974=AXIS2_PLACEMENT_3D('',#1488,#1162,#1163);
#975=AXIS2_PLACEMENT_3D('',#1490,#1164,#1165);
#976=AXIS2_PLACEMENT_3D('',#1491,#1166,#1167);
#977=AXIS2_PLACEMENT_3D('',#1493,#1168,#1169);
#978=AXIS2_PLACEMENT_3D('',#1494,#1170,#1171);
#979=AXIS2_PLACEMENT_3D('',#1521,#1174,#1175);
#980=AXIS2_PLACEMENT_3D('',#1548,#1178,#1179);
#981=AXIS2_PLACEMENT_3D('',#1549,#1180,#1181);
#982=AXIS2_PLACEMENT_3D('',#1550,#1182,#1183);
#983=AXIS2_PLACEMENT_3D('',#1552,#1185,#1186);
#984=AXIS2_PLACEMENT_3D('',#1554,#1188,#1189);
#985=AXIS2_PLACEMENT_3D('',#1555,#1190,#1191);
#986=AXIS2_PLACEMENT_3D('',#1557,#1193,#1194);
#987=AXIS2_PLACEMENT_3D('',#1558,#1195,#1196);
#988=AXIS2_PLACEMENT_3D('',#1559,#1197,#1198);
#989=AXIS2_PLACEMENT_3D('',#1560,#1199,#1200);
#990=AXIS2_PLACEMENT_3D('',#1562,#1201,#1202);
#991=AXIS2_PLACEMENT_3D('',#1564,#1204,#1205);
#992=AXIS2_PLACEMENT_3D('',#1566,#1207,#1208);
#993=AXIS2_PLACEMENT_3D('',#1570,#1211,#1212);
#994=AXIS2_PLACEMENT_3D('',#1571,#1213,#1214);
#995=AXIS2_PLACEMENT_3D('',#1572,#1215,#1216);
#996=AXIS2_PLACEMENT_3D('',#1573,#1217,#1218);
#997=AXIS2_PLACEMENT_3D('',#1574,#1219,#1220);
#998=AXIS2_PLACEMENT_3D('',#1575,#1221,#1222);
#999=AXIS2_PLACEMENT_3D('',#1576,#1223,#1224);
#1000=AXIS2_PLACEMENT_3D('',#1578,#1225,#1226);
#1001=AXIS2_PLACEMENT_3D('',#1579,#1227,#1228);
#1002=AXIS2_PLACEMENT_3D('',#1581,#1229,#1230);
#1003=AXIS2_PLACEMENT_3D('',#1582,#1231,#1232);
#1004=AXIS2_PLACEMENT_3D('',#1583,#1233,#1234);
#1005=AXIS2_PLACEMENT_3D('',#1585,#1236,#1237);
#1006=AXIS2_PLACEMENT_3D('',#1589,#1239,#1240);
#1007=AXIS2_PLACEMENT_3D('',#1591,#1242,#1243);
#1008=AXIS2_PLACEMENT_3D('',#1593,#1245,#1246);
#1009=AXIS2_PLACEMENT_3D('',#1597,#1248,#1249);
#1010=AXIS2_PLACEMENT_3D('',#1599,#1251,#1252);
#1011=AXIS2_PLACEMENT_3D('',#1603,#1254,#1255);
#1012=AXIS2_PLACEMENT_3D('',#1605,#1257,#1258);
#1013=AXIS2_PLACEMENT_3D('',#1609,#1260,#1261);
#1014=AXIS2_PLACEMENT_3D('',#1611,#1263,#1264);
#1015=AXIS2_PLACEMENT_3D('',#1613,#1266,#1267);
#1016=AXIS2_PLACEMENT_3D('',#1615,#1269,#1270);
#1017=AXIS2_PLACEMENT_3D('',#1617,#1272,#1273);
#1018=AXIS2_PLACEMENT_3D('',#1619,#1275,#1276);
#1019=AXIS2_PLACEMENT_3D('',#1621,#1277,#1278);
#1020=AXIS2_PLACEMENT_3D('',#1624,#1280,#1281);
#1021=AXIS2_PLACEMENT_3D('',#1625,#1282,#1283);
#1022=AXIS2_PLACEMENT_3D('',#1627,#1284,#1285);
#1023=AXIS2_PLACEMENT_3D('',#1630,#1287,#1288);
#1024=AXIS2_PLACEMENT_3D('',#1631,#1289,#1290);
#1025=AXIS2_PLACEMENT_3D('',#1633,#1291,#1292);
#1026=AXIS2_PLACEMENT_3D('',#1636,#1294,#1295);
#1027=AXIS2_PLACEMENT_3D('',#1637,#1296,#1297);
#1028=AXIS2_PLACEMENT_3D('',#1639,#1298,#1299);
#1029=AXIS2_PLACEMENT_3D('',#1640,#1300,#1301);
#1030=AXIS2_PLACEMENT_3D('',#1642,#1302,#1303);
#1031=AXIS2_PLACEMENT_3D('',#1644,#1305,#1306);
#1032=AXIS2_PLACEMENT_3D('',#1646,#1308,#1309);
#1033=AXIS2_PLACEMENT_3D('',#1648,#1311,#1312);
#1034=AXIS2_PLACEMENT_3D('',#1650,#1314,#1315);
#1035=DIRECTION('axis',(0.,0.,1.));
#1036=DIRECTION('refdir',(1.,0.,0.));
#1037=DIRECTION('center_axis',(1.51461293802434E-28,1.,1.32344443644243E-23));
#1038=DIRECTION('ref_axis',(0.707106781186547,0.,0.707106781186548));
#1039=DIRECTION('center_axis',(-1.51461293802434E-28,-1.,-1.32344443644243E-23));
#1040=DIRECTION('ref_axis',(0.707106781186547,0.,0.707106781186548));
#1041=DIRECTION('',(-1.51461293802434E-28,-1.,-1.32344443644243E-23));
#1042=DIRECTION('center_axis',(1.76704842769507E-28,1.,1.32334197776665E-23));
#1043=DIRECTION('ref_axis',(0.707106781186547,0.,0.707106781186548));
#1044=DIRECTION('',(1.51461293802434E-28,1.,1.32344443644243E-23));
#1045=DIRECTION('center_axis',(-1.76704842769507E-28,-1.,-1.32334197776665E-23));
#1046=DIRECTION('ref_axis',(-1.31887682591638E-30,1.32334197776665E-23,
-1.));
#1047=DIRECTION('',(1.,-1.76704842769507E-28,-1.29730641053924E-30));
#1048=DIRECTION('center_axis',(1.76704842769507E-28,1.,1.32334197776665E-23));
#1049=DIRECTION('ref_axis',(-0.707106781186543,-2.77082066646217E-12,0.707106781186552));
#1050=DIRECTION('',(1.08971778192955E-15,-1.32326521258548E-23,1.));
#1051=DIRECTION('center_axis',(1.76704842769507E-28,1.,1.32334197776665E-23));
#1052=DIRECTION('ref_axis',(-0.707106781186544,-2.77082066646216E-12,-0.707106781186551));
#1053=DIRECTION('',(1.,-3.02922587604869E-28,-1.48219568520042E-30));
#1054=DIRECTION('center_axis',(1.76704842769507E-28,1.,1.32334197776665E-23));
#1055=DIRECTION('ref_axis',(0.707106781186546,0.,-0.707106781186549));
#1056=DIRECTION('',(-1.10009118423399E-30,1.32334198019203E-23,-1.));
#1057=DIRECTION('center_axis',(7.05660731623483E-31,-1.32344443644243E-23,
1.));
#1058=DIRECTION('ref_axis',(1.,-8.33037115913389E-28,-7.05660731623483E-31));
#1059=DIRECTION('',(1.,-1.26217744835362E-28,-7.05660731623483E-31));
#1060=DIRECTION('',(1.51461293802434E-28,1.,1.32344443644243E-23));
#1061=DIRECTION('',(1.,-8.83524213847533E-28,-1.50376610057755E-30));
#1062=DIRECTION('',(3.9181322399261E-12,-1.,-1.32344443644243E-23));
#1063=DIRECTION('',(-0.245856299719505,-0.969306287964869,-1.28282299666666E-23));
#1064=DIRECTION('',(3.9181322399261E-12,-1.,-1.32344443644243E-23));
#1065=DIRECTION('',(-1.,-3.9181322399261E-12,7.05608877320341E-31));
#1066=DIRECTION('',(-3.9181322399261E-12,1.,1.32344443644243E-23));
#1067=DIRECTION('',(-0.245855726649658,0.969306433318983,1.28282322373294E-23));
#1068=DIRECTION('',(-3.9181322399261E-12,1.,1.32344443644243E-23));
#1069=DIRECTION('center_axis',(1.51461293802434E-28,1.,1.32344443644243E-23));
#1070=DIRECTION('ref_axis',(-0.707106781186548,0.,0.707106781186548));
#1071=DIRECTION('center_axis',(-1.51461293802434E-28,-1.,-1.32344443644243E-23));
#1072=DIRECTION('ref_axis',(-0.707106781186548,0.,0.707106781186548));
#1073=DIRECTION('',(-1.51461293802434E-28,-1.,-1.32344443644243E-23));
#1074=DIRECTION('center_axis',(1.76704842769507E-28,1.,1.32334197776665E-23));
#1075=DIRECTION('ref_axis',(-0.707106781186548,0.,0.707106781186548));
#1076=DIRECTION('center_axis',(-1.76704842769507E-28,-1.,-1.32334197776665E-23));
#1077=DIRECTION('ref_axis',(-1.31887682591638E-30,1.32334197776665E-23,
-1.));
#1078=DIRECTION('',(1.10625416005603E-30,-1.32334198019203E-23,1.));
#1079=DIRECTION('center_axis',(1.76704842769507E-28,1.,1.32334197776665E-23));
#1080=DIRECTION('ref_axis',(-0.707106781186548,0.,-0.707106781186548));
#1081=DIRECTION('',(-1.,1.76704842769507E-28,1.28498045889516E-30));
#1082=DIRECTION('center_axis',(1.76704842769507E-28,1.,1.32334197776665E-23));
#1083=DIRECTION('ref_axis',(0.707106781186544,2.77082066646216E-12,-0.707106781186551));
#1084=DIRECTION('',(-1.08971778192955E-15,1.32326521258548E-23,-1.));
#1085=DIRECTION('center_axis',(1.76704842769507E-28,1.,1.32334197776665E-23));
#1086=DIRECTION('ref_axis',(0.707106781186544,2.77082066646216E-12,0.707106781186551));
#1087=DIRECTION('center_axis',(1.51461293802434E-28,1.,1.3234453486636E-23));
#1088=DIRECTION('ref_axis',(-0.707106781186548,0.,-0.707106781186548));
#1089=DIRECTION('center_axis',(-1.51461293802434E-28,-1.,-1.3234453486636E-23));
#1090=DIRECTION('ref_axis',(-0.707106781186548,0.,-0.707106781186548));
#1091=DIRECTION('',(-1.51461293802434E-28,-1.,-1.3234453486636E-23));
#1092=DIRECTION('',(1.51461293802434E-28,1.,1.3234453486636E-23));
#1093=DIRECTION('center_axis',(6.93334779979405E-31,-1.3234453486636E-23,
1.));
#1094=DIRECTION('ref_axis',(1.,-2.77679038637796E-28,-6.93334779979405E-31));
#1095=DIRECTION('',(-1.,1.26217744835362E-28,6.93334779979405E-31));
#1096=DIRECTION('',(1.51461293802434E-28,1.,1.3234453486636E-23));
#1097=DIRECTION('',(3.9181322399261E-12,-1.,-1.3234453486636E-23));
#1098=DIRECTION('',(0.245855726649653,-0.969306433318984,-1.28282410765175E-23));
#1099=DIRECTION('',(3.9181322399261E-12,-1.,-1.3234453486636E-23));
#1100=DIRECTION('',(1.,3.9181322399261E-12,-6.93282925640521E-31));
#1101=DIRECTION('',(-3.9181322399261E-12,1.,1.3234453486636E-23));
#1102=DIRECTION('',(0.245856299719505,0.969306287964869,1.28282388119141E-23));
#1103=DIRECTION('',(-3.9181322399261E-12,1.,1.3234453486636E-23));
#1104=DIRECTION('center_axis',(1.51461293802434E-28,1.,1.3234453486636E-23));
#1105=DIRECTION('ref_axis',(0.707106781186546,0.,-0.707106781186549));
#1106=DIRECTION('center_axis',(-1.51461293802434E-28,-1.,-1.3234453486636E-23));
#1107=DIRECTION('ref_axis',(0.707106781186546,0.,-0.707106781186549));
#1108=DIRECTION('',(-1.51461293802434E-28,-1.,-1.3234453486636E-23));
#1109=DIRECTION('center_axis',(-0.245856299719505,-0.969306287964869,-2.87056051611621E-15));
#1110=DIRECTION('ref_axis',(0.68540304926673,-0.173846656729095,-0.707106781186537));
#1111=DIRECTION('',(0.245856299719505,0.969306287964869,2.87056051611621E-15));
#1112=DIRECTION('',(-0.245856299719505,-0.969306287964869,-2.87056049382907E-15));
#1113=DIRECTION('center_axis',(0.245856299719505,0.969306287964869,2.87056043810958E-15));
#1114=DIRECTION('ref_axis',(0.685403049266721,-0.173846656729101,0.707106781186544));
#1115=DIRECTION('',(-0.245856299719505,-0.969306287964869,-2.87056043810958E-15));
#1116=DIRECTION('',(0.245856299719505,0.969306287964869,2.87056049382907E-15));
#1117=DIRECTION('center_axis',(-4.11657084686484E-17,-3.61764003799154E-15,
1.));
#1118=DIRECTION('ref_axis',(1.48414348302359E-13,1.,3.61764004670703E-15));
#1119=DIRECTION('center_axis',(-5.29930210958015E-23,2.96145860888327E-15,
-1.));
#1120=DIRECTION('ref_axis',(1.48414348302359E-13,1.,3.61763996729667E-15));
#1121=DIRECTION('',(-4.11657084686484E-17,-3.61764003799154E-15,1.));
#1122=DIRECTION('center_axis',(4.87886460897545E-23,-2.96145868829363E-15,
1.));
#1123=DIRECTION('ref_axis',(1.48414348302359E-13,1.,3.61764004670703E-15));
#1124=DIRECTION('',(-4.11657084686484E-17,-3.61764003799154E-15,1.));
#1125=DIRECTION('center_axis',(-5.29930210958015E-23,2.96145860888327E-15,
-1.));
#1126=DIRECTION('ref_axis',(1.48414348302359E-13,1.,2.96145860888307E-15));
#1127=DIRECTION('center_axis',(4.87886460897545E-23,-2.96145868829363E-15,
1.));
#1128=DIRECTION('ref_axis',(-1.48414348302359E-13,-1.,-2.96145868829343E-15));
#1129=DIRECTION('center_axis',(-3.9181322399261E-12,1.,1.32344443644243E-23));
#1130=DIRECTION('ref_axis',(0.707106781186544,2.77082066646216E-12,0.707106781186551));
#1131=DIRECTION('',(-3.9181322399261E-12,1.,1.32344443644243E-23));
#1132=DIRECTION('center_axis',(-3.9181322399261E-12,1.,-1.06317680567929E-14));
#1133=DIRECTION('ref_axis',(0.707106781186544,2.77082066646216E-12,0.707106781186551));
#1134=DIRECTION('center_axis',(0.123882428209571,0.992296903139832,5.50835434565037E-16));
#1135=DIRECTION('ref_axis',(0.992296903139832,-0.123882428209571,4.4121857353493E-15));
#1136=DIRECTION('center_axis',(0.245856299719505,0.969306287964869,1.28282299666666E-23));
#1137=DIRECTION('ref_axis',(0.685403049266718,-0.173846656729095,0.707106781186548));
#1138=DIRECTION('center_axis',(0.123882428209442,0.992296903139848,0.));
#1139=DIRECTION('ref_axis',(-0.992296903139848,0.123882428209442,-1.03551650975342E-22));
#1140=DIRECTION('center_axis',(-3.9181322399261E-12,1.,1.32344443644243E-23));
#1141=DIRECTION('ref_axis',(0.707106781186544,2.77082066646216E-12,0.707106781186551));
#1142=DIRECTION('',(-3.9181322399261E-12,1.,1.32344443644243E-23));
#1143=DIRECTION('center_axis',(3.9181322399261E-12,-1.,-1.3234453486636E-23));
#1144=DIRECTION('ref_axis',(0.707106781186544,2.77082066646216E-12,-0.707106781186551));
#1145=DIRECTION('',(3.9181322399261E-12,-1.,-1.3234453486636E-23));
#1146=DIRECTION('center_axis',(-0.123882428209496,-0.992296903139841,0.));
#1147=DIRECTION('ref_axis',(-0.992296903139841,0.123882428209496,1.06830756205715E-22));
#1148=DIRECTION('center_axis',(-0.245856299719505,-0.969306287964869,-1.28282388119141E-23));
#1149=DIRECTION('ref_axis',(0.685403049266716,-0.173846656729092,-0.707106781186551));
#1150=DIRECTION('center_axis',(-0.123882428209557,-0.992296903139833,0.));
#1151=DIRECTION('ref_axis',(0.992296903139833,-0.123882428209557,1.03551722375779E-22));
#1152=DIRECTION('center_axis',(3.9181322399261E-12,-1.,-1.3234453486636E-23));
#1153=DIRECTION('ref_axis',(0.707106781186544,2.77082066646216E-12,-0.707106781186551));
#1154=DIRECTION('center_axis',(-3.9181322399261E-12,1.,-1.06317680567929E-14));
#1155=DIRECTION('ref_axis',(0.707106781186544,2.77082066646216E-12,-0.707106781186551));
#1156=DIRECTION('',(3.9181322399261E-12,-1.,-1.3234453486636E-23));
#1157=DIRECTION('center_axis',(-1.,-3.9181322399261E-12,1.08971778192955E-15));
#1158=DIRECTION('ref_axis',(1.08971778188789E-15,1.06317680567979E-14,1.));
#1159=DIRECTION('center_axis',(-1.,-3.9181322399261E-12,1.08971778192955E-15));
#1160=DIRECTION('ref_axis',(1.08971778188789E-15,1.06317680567977E-14,1.));
#1161=DIRECTION('',(-1.08971778188789E-15,-1.06317680567972E-14,-1.));
#1162=DIRECTION('center_axis',(-5.2539586277172E-21,1.,2.96145866182345E-15));
#1163=DIRECTION('ref_axis',(-1.35698563913828E-15,-2.96145866182365E-15,
1.));
#1164=DIRECTION('center_axis',(5.2539586277172E-21,-1.,-2.96145866182345E-15));
#1165=DIRECTION('ref_axis',(-1.35698563913828E-15,-2.95972960855261E-15,
1.));
#1166=DIRECTION('center_axis',(-5.2539586277172E-21,1.,2.96145866182345E-15));
#1167=DIRECTION('ref_axis',(-1.35698563913828E-15,-2.96145866182365E-15,
1.));
#1168=DIRECTION('center_axis',(5.2539586277172E-21,-1.,-2.96145866182345E-15));
#1169=DIRECTION('ref_axis',(-1.35698563913828E-15,-2.95972962036948E-15,
1.));
#1170=DIRECTION('center_axis',(-0.245855726649658,0.969306433318983,2.87056097002517E-15));
#1171=DIRECTION('ref_axis',(-0.685403152047607,-0.173846251507517,-0.70710678118654));
#1172=DIRECTION('',(0.245855726649658,-0.969306433318983,-2.87056097002517E-15));
#1173=DIRECTION('',(-0.245855726649658,0.969306433318983,3.96237972309087E-15));
#1174=DIRECTION('center_axis',(0.245855726649653,-0.969306433318984,-2.8705609838674E-15));
#1175=DIRECTION('ref_axis',(-0.685403152047607,-0.173846251507521,0.70710678118654));
#1176=DIRECTION('',(-0.245855726649653,0.969306433318984,2.8705609838674E-15));
#1177=DIRECTION('',(0.245855726649653,-0.969306433318984,-2.8705609774041E-15));
#1178=DIRECTION('center_axis',(-5.07098767897294E-23,2.96145870152852E-15,
-1.));
#1179=DIRECTION('ref_axis',(1.48414348302359E-13,1.,2.96145870152832E-15));
#1180=DIRECTION('center_axis',(-5.07098767897294E-23,2.96145870152852E-15,
-1.));
#1181=DIRECTION('ref_axis',(1.48414348302359E-13,1.,3.61764004670703E-15));
#1182=DIRECTION('center_axis',(-4.11657084686484E-17,-3.61764003799154E-15,
1.));
#1183=DIRECTION('ref_axis',(1.48414348302359E-13,1.,3.61764004670703E-15));
#1184=DIRECTION('',(4.11657084686484E-17,3.61764003799154E-15,-1.));
#1185=DIRECTION('center_axis',(4.65873234228481E-23,-2.96145868829363E-15,
1.));
#1186=DIRECTION('ref_axis',(1.48414348302359E-13,1.,3.61764004670703E-15));
#1187=DIRECTION('',(4.11657084686484E-17,3.61764003799154E-15,-1.));
#1188=DIRECTION('center_axis',(4.65873234228481E-23,-2.96145868829363E-15,
1.));
#1189=DIRECTION('ref_axis',(-1.48414348302359E-13,-1.,-2.96145868829343E-15));
#1190=DIRECTION('center_axis',(3.9181322399261E-12,-1.,-1.32344443644243E-23));
#1191=DIRECTION('ref_axis',(-0.707106781186543,-2.77082066646217E-12,0.707106781186552));
#1192=DIRECTION('',(3.9181322399261E-12,-1.,-1.32344443644243E-23));
#1193=DIRECTION('center_axis',(0.123882134865599,-0.992296939762056,0.));
#1194=DIRECTION('ref_axis',(0.992296939762056,0.123882134865599,1.06830935543675E-22));
#1195=DIRECTION('center_axis',(0.245855726649658,-0.969306433318983,-1.28282322373294E-23));
#1196=DIRECTION('ref_axis',(-0.685403152047594,-0.173846251507518,0.707106781186553));
#1197=DIRECTION('center_axis',(0.123882134865671,-0.992296939762047,-5.5083545489445E-16));
#1198=DIRECTION('ref_axis',(-0.992296939762047,-0.123882134865671,-4.41219651170541E-15));
#1199=DIRECTION('center_axis',(3.9181322399261E-12,-1.,-1.32344443644243E-23));
#1200=DIRECTION('ref_axis',(-0.707106781186544,-2.77082066646216E-12,0.707106781186551));
#1201=DIRECTION('center_axis',(-3.9181322399261E-12,1.,-1.06317680567929E-14));
#1202=DIRECTION('ref_axis',(-0.707106781186544,-2.77082066646216E-12,0.707106781186551));
#1203=DIRECTION('',(3.9181322399261E-12,-1.,-1.32344443644243E-23));
#1204=DIRECTION('center_axis',(1.,3.9181322399261E-12,-1.08971778192955E-15));
#1205=DIRECTION('ref_axis',(-1.08971778188789E-15,-1.06317680567979E-14,
-1.));
#1206=DIRECTION('',(-3.9181322399261E-12,1.,1.3234453486636E-23));
#1207=DIRECTION('center_axis',(1.,3.9181322399261E-12,-1.08971778192955E-15));
#1208=DIRECTION('ref_axis',(-1.08971778188789E-15,-1.06317680567977E-14,
-1.));
#1209=DIRECTION('',(1.08971778188789E-15,1.06317680567972E-14,1.));
#1210=DIRECTION('',(-3.9181322399261E-12,1.,1.3234453486636E-23));
#1211=DIRECTION('center_axis',(3.9181322399261E-12,-1.,-1.3234453486636E-23));
#1212=DIRECTION('ref_axis',(-0.707106781186544,-2.77082066646216E-12,-0.707106781186551));
#1213=DIRECTION('center_axis',(0.123882134865564,-0.99229693976206,0.));
#1214=DIRECTION('ref_axis',(0.99229693976206,0.123882134865564,1.06831009179921E-22));
#1215=DIRECTION('center_axis',(3.9181322399261E-12,-1.,-1.3234453486636E-23));
#1216=DIRECTION('ref_axis',(-0.707106781186544,-2.77082066646216E-12,-0.707106781186551));
#1217=DIRECTION('center_axis',(-3.9181322399261E-12,1.,-1.06317680567929E-14));
#1218=DIRECTION('ref_axis',(-0.707106781186544,-2.77082066646216E-12,-0.707106781186551));
#1219=DIRECTION('center_axis',(-0.123882134865645,0.99229693976205,0.));
#1220=DIRECTION('ref_axis',(0.99229693976205,0.123882134865644,1.06831009179852E-22));
#1221=DIRECTION('center_axis',(0.245855726649653,-0.969306433318984,-1.28282410765175E-23));
#1222=DIRECTION('ref_axis',(-0.685403152047595,-0.173846251507515,-0.707106781186553));
#1223=DIRECTION('center_axis',(-5.2539586277172E-21,1.,2.96145866182345E-15));
#1224=DIRECTION('ref_axis',(-1.35698563913828E-15,-2.96145866182365E-15,
1.));
#1225=DIRECTION('center_axis',(5.2539586277172E-21,-1.,-2.96145866182345E-15));
#1226=DIRECTION('ref_axis',(-1.35698563913828E-15,-2.95972960855261E-15,
1.));
#1227=DIRECTION('center_axis',(-5.2539586277172E-21,1.,2.96145866182345E-15));
#1228=DIRECTION('ref_axis',(-1.35698563913828E-15,-2.96145866182365E-15,
1.));
#1229=DIRECTION('center_axis',(5.2539586277172E-21,-1.,-2.96145866182345E-15));
#1230=DIRECTION('ref_axis',(-1.35698563913828E-15,-2.9597296085526E-15,
1.));
#1231=DIRECTION('center_axis',(-3.9181322399261E-12,1.,-1.06317680567929E-14));
#1232=DIRECTION('ref_axis',(1.08971778188789E-15,1.06317680567972E-14,1.));
#1233=DIRECTION('center_axis',(1.,-1.51461293802434E-28,-3.11230279012977E-31));
#1234=DIRECTION('ref_axis',(-3.11230279012977E-31,1.32344170396505E-23,
-1.));
#1235=DIRECTION('',(-3.11230279012977E-31,1.32341667854244E-23,-1.));
#1236=DIRECTION('center_axis',(0.,-1.,0.));
#1237=DIRECTION('ref_axis',(0.707106781186547,-4.3448127945628E-24,0.707106781186548));
#1238=DIRECTION('',(0.707106781186446,-0.707106781186649,0.));
#1239=DIRECTION('center_axis',(-1.26217744835362E-28,-1.,-1.32341667854244E-23));
#1240=DIRECTION('ref_axis',(0.707106781186547,-9.35805832675065E-24,0.707106781186548));
#1241=DIRECTION('',(0.,0.70710678118672,-0.707106781186375));
#1242=DIRECTION('center_axis',(-1.,1.51461293802434E-28,3.11230279012977E-31));
#1243=DIRECTION('ref_axis',(3.11230279012977E-31,-1.32344170396505E-23,
1.));
#1244=DIRECTION('',(3.11230279012977E-31,-1.32341667854244E-23,1.));
#1245=DIRECTION('center_axis',(0.,-1.,0.));
#1246=DIRECTION('ref_axis',(-0.707106781186547,-4.34472992009832E-24,0.707106781186547));
#1247=DIRECTION('',(0.,0.707106781186547,-0.707106781186548));
#1248=DIRECTION('center_axis',(-1.26217744835362E-28,-1.,-1.32341667854244E-23));
#1249=DIRECTION('ref_axis',(-0.707106781186548,-9.35787982790408E-24,0.707106781186548));
#1250=DIRECTION('',(0.707106781186399,0.707106781186696,0.));
#1251=DIRECTION('center_axis',(0.,-1.,0.));
#1252=DIRECTION('ref_axis',(-0.707106781186548,4.3448127945628E-24,-0.707106781186548));
#1253=DIRECTION('',(0.707106781186548,0.707106781186547,0.));
#1254=DIRECTION('center_axis',(-1.26217744835362E-28,-1.,-1.32341667854244E-23));
#1255=DIRECTION('ref_axis',(-0.707106781186547,9.35805832675064E-24,-0.707106781186547));
#1256=DIRECTION('',(0.,0.707106781186696,0.707106781186399));
#1257=DIRECTION('center_axis',(0.,-1.,0.));
#1258=DIRECTION('ref_axis',(0.707106781186547,4.34472992009834E-24,-0.707106781186549));
#1259=DIRECTION('',(0.,0.707106781186555,0.70710678118654));
#1260=DIRECTION('center_axis',(-1.26217744835362E-28,-1.,-1.32341667854244E-23));
#1261=DIRECTION('ref_axis',(0.707106781186546,9.35787982790409E-24,-0.707106781186549));
#1262=DIRECTION('',(-0.707106781186446,0.707106781186649,0.));
#1263=DIRECTION('center_axis',(8.97484007676841E-29,0.707106781186375,0.70710678118672));
#1264=DIRECTION('ref_axis',(1.,0.,-1.26923405566924E-28));
#1265=DIRECTION('',(-1.,1.26217744835362E-28,7.05660731623483E-31));
#1266=DIRECTION('center_axis',(-0.707106781186696,0.707106781186399,9.35796929739843E-24));
#1267=DIRECTION('ref_axis',(1.32341670966491E-23,0.,1.));
#1268=DIRECTION('',(-3.11230279012977E-31,1.32341667854244E-23,-1.));
#1269=DIRECTION('center_axis',(8.87591615545829E-29,0.707106781186399,-0.707106781186696));
#1270=DIRECTION('ref_axis',(-1.,0.,-1.25524410055329E-28));
#1271=DIRECTION('',(1.,-1.26217744835362E-28,-6.93334779979405E-31));
#1272=DIRECTION('center_axis',(0.707106781186649,0.707106781186446,9.35796885725297E-24));
#1273=DIRECTION('ref_axis',(1.32341664741903E-23,0.,-1.));
#1274=DIRECTION('',(3.11230279012977E-31,-1.32341667854244E-23,1.));
#1275=DIRECTION('center_axis',(0.,1.,0.));
#1276=DIRECTION('ref_axis',(-1.35698563913828E-15,-1.38120715771601E-15,
1.));
#1277=DIRECTION('center_axis',(-1.26217744835362E-28,-1.,-1.32341667854244E-23));
#1278=DIRECTION('ref_axis',(-1.35698563913828E-15,-2.9597296085526E-15,
1.));
#1279=DIRECTION('',(1.04612935303068E-15,0.707106781186756,-0.707106781186339));
#1280=DIRECTION('center_axis',(1.26217744835362E-28,1.,1.32341667854244E-23));
#1281=DIRECTION('ref_axis',(-1.35698563913828E-15,-1.323416658796E-23,1.));
#1282=DIRECTION('center_axis',(0.,1.,0.));
#1283=DIRECTION('ref_axis',(-1.35698563913828E-15,-1.38120716323055E-15,
1.));
#1284=DIRECTION('center_axis',(-1.26217744835362E-28,-1.,-1.32341667854244E-23));
#1285=DIRECTION('ref_axis',(-1.35698563913828E-15,-2.95972962036948E-15,
1.));
#1286=DIRECTION('',(1.04612935303072E-15,0.707106781186728,-0.707106781186367));
#1287=DIRECTION('center_axis',(1.26217744835362E-28,1.,1.32341667854244E-23));
#1288=DIRECTION('ref_axis',(-1.35698563913828E-15,-1.323416658796E-23,1.));
#1289=DIRECTION('center_axis',(0.,1.,0.));
#1290=DIRECTION('ref_axis',(-1.35698563913828E-15,-1.38120715771601E-15,
1.));
#1291=DIRECTION('center_axis',(-1.26217744835362E-28,-1.,-1.32341667854244E-23));
#1292=DIRECTION('ref_axis',(-1.35698563913828E-15,-2.95972960855261E-15,
1.));
#1293=DIRECTION('',(1.04612935303044E-15,0.707106781186921,-0.707106781186174));
#1294=DIRECTION('center_axis',(1.26217744835362E-28,1.,1.32341667854244E-23));
#1295=DIRECTION('ref_axis',(-1.35698563913828E-15,-1.32341665879599E-23,
1.));
#1296=DIRECTION('center_axis',(1.26217744835362E-28,1.,1.32341667854244E-23));
#1297=DIRECTION('ref_axis',(4.99201041585172E-31,-1.32341667854244E-23,
1.));
#1298=DIRECTION('center_axis',(1.26217744835362E-28,1.,1.32341667854244E-23));
#1299=DIRECTION('ref_axis',(-1.35698563913828E-15,-1.32341665879599E-23,
1.));
#1300=DIRECTION('center_axis',(0.,1.,0.));
#1301=DIRECTION('ref_axis',(-1.35698563913828E-15,-1.38120715771601E-15,
1.));
#1302=DIRECTION('center_axis',(-1.26217744835362E-28,-1.,-1.32341667854244E-23));
#1303=DIRECTION('ref_axis',(-1.35698563913828E-15,-2.95972960855261E-15,
1.));
#1304=DIRECTION('',(1.0461293530304E-15,0.707106781186948,-0.707106781186147));
#1305=DIRECTION('center_axis',(-3.84607671715317E-16,-1.,-2.9597296161152E-15));
#1306=DIRECTION('ref_axis',(-1.35698563913828E-15,-2.9597296085526E-15,
1.));
#1307=DIRECTION('',(-3.84607671715317E-16,-1.,-2.9597296161152E-15));
#1308=DIRECTION('center_axis',(-3.84607671715317E-16,-1.,-2.9597296161152E-15));
#1309=DIRECTION('ref_axis',(-1.35698563913828E-15,-2.95972962036948E-15,
1.));
#1310=DIRECTION('',(-3.84607671715317E-16,-1.,-2.9597296161152E-15));
#1311=DIRECTION('center_axis',(-3.84607671715317E-16,-1.,-2.9597296161152E-15));
#1312=DIRECTION('ref_axis',(-1.35698563913828E-15,-2.95972960855261E-15,
1.));
#1313=DIRECTION('',(-3.84607671715317E-16,-1.,-2.9597296161152E-15));
#1314=DIRECTION('center_axis',(-3.84607671715317E-16,-1.,-2.9597296161152E-15));
#1315=DIRECTION('ref_axis',(-1.35698563913828E-15,-2.95972960855261E-15,
1.));
#1316=DIRECTION('',(-3.84607671715317E-16,-1.,-2.9597296161152E-15));
#1317=CARTESIAN_POINT('',(0.,0.,0.));
#1318=CARTESIAN_POINT('Origin',(-17.9999999999998,-1.55000000000035,-64.2999999999993));
#1319=CARTESIAN_POINT('',(-14.9999999999998,1.70000024863173,-64.2999999999993));
#1320=CARTESIAN_POINT('',(-17.9999999999998,1.70000024863173,-61.2999999999993));
#1321=CARTESIAN_POINT('Origin',(-17.9999999999998,1.70000024863188,-64.2999999999993));
#1322=CARTESIAN_POINT('',(-17.9999999999998,-9.30000000000013,-61.2999999999993));
#1323=CARTESIAN_POINT('',(-17.9999999999998,-1.55000000000035,-61.2999999999993));
#1324=CARTESIAN_POINT('',(-14.9999999999998,-9.30000000000048,-64.2999999999993));
#1325=CARTESIAN_POINT('Origin',(-17.9999999999998,-9.30000000000013,-64.2999999999993));
#1326=CARTESIAN_POINT('',(-14.9999999999998,-1.55000000000035,-64.2999999999993));
#1327=CARTESIAN_POINT('Origin',(-38.4499999999998,-9.30000000000013,-110.999999999999));
#1328=CARTESIAN_POINT('',(-19.9000180996654,-9.30000000000013,-61.2999999999993));
#1329=CARTESIAN_POINT('',(-33.4749999999998,-9.30000000000013,-61.2999999999993));
#1330=CARTESIAN_POINT('',(-20.9000180996709,-9.2999999999899,-62.2999999999993));
#1331=CARTESIAN_POINT('Origin',(-19.9000180996654,-9.29999999992745,-62.2999999999993));
#1332=CARTESIAN_POINT('',(-20.9000180996709,-9.2999999999899,-105.699999999999));
#1333=CARTESIAN_POINT('',(-20.900018099671,-9.2999999999899,-154.02276573284));
#1334=CARTESIAN_POINT('',(-19.9000180996654,-9.30000000000048,-106.699999999999));
#1335=CARTESIAN_POINT('Origin',(-19.9000180996654,-9.29999999992745,-105.699999999999));
#1336=CARTESIAN_POINT('',(-17.9999999999998,-9.30000000000048,-106.699999999999));
#1337=CARTESIAN_POINT('',(-33.4749999999998,-9.30000000000048,-106.699999999999));
#1338=CARTESIAN_POINT('',(-14.9999999999998,-9.30000000000048,-103.699999999999));
#1339=CARTESIAN_POINT('Origin',(-17.9999999999998,-9.30000000000013,-103.699999999999));
#1340=CARTESIAN_POINT('',(-14.9999999999998,-9.30000000000048,-110.999999999999));
#1341=CARTESIAN_POINT('Origin',(-28.4999999999998,0.699999999999577,-61.2999999999993));
#1342=CARTESIAN_POINT('',(-38.9999999999998,1.70000024863187,-61.2999999999993));
#1343=CARTESIAN_POINT('',(-26.8999999999998,1.70000024863173,-61.2999999999993));
#1344=CARTESIAN_POINT('',(-38.9999999999998,-9.30000000000063,-61.2999999999992));
#1345=CARTESIAN_POINT('',(-38.9999999999998,0.449999999999648,-61.2999999999993));
#1346=CARTESIAN_POINT('',(-37.1000180996654,-9.30000000000063,-61.2999999999992));
#1347=CARTESIAN_POINT('',(-38.4999999999998,-9.30000000000063,-61.2999999999992));
#1348=CARTESIAN_POINT('',(-37.1000180996702,-8.083027175354,-61.2999999999993));
#1349=CARTESIAN_POINT('',(-37.1000180996924,-2.42000000062072,-61.2999999999993));
#1350=CARTESIAN_POINT('',(-36.1000180996856,-4.14045466834171,-61.2999999999993));
#1351=CARTESIAN_POINT('',(-35.2782139656498,-0.900432283293096,-61.2999999999993));
#1352=CARTESIAN_POINT('',(-36.1000180996928,-2.30000000120169,-61.2999999999993));
#1353=CARTESIAN_POINT('',(-36.1000180996924,-2.42000000061677,-61.2999999999993));
#1354=CARTESIAN_POINT('',(-20.9000180996928,-2.30000000114214,-61.2999999999993));
#1355=CARTESIAN_POINT('',(-28.5000000946532,-2.30000000117192,-61.2999999999993));
#1356=CARTESIAN_POINT('',(-20.9000180996856,-4.14045941567831,-61.2999999999993));
#1357=CARTESIAN_POINT('',(-20.9000180996959,-1.4950000005583,-61.2999999999993));
#1358=CARTESIAN_POINT('',(-19.9000180996702,-8.08304170384754,-61.2999999999993));
#1359=CARTESIAN_POINT('',(-21.2218193039842,-2.87173168731859,-61.2999999999993));
#1360=CARTESIAN_POINT('',(-19.900018099696,-1.49500000055442,-61.2999999999993));
#1361=CARTESIAN_POINT('Origin',(-38.9999999999998,0.449999999999648,-64.2999999999993));
#1362=CARTESIAN_POINT('',(-41.9999999999998,1.70000024863173,-64.2999999999993));
#1363=CARTESIAN_POINT('Origin',(-38.9999999999998,1.70000024863187,-64.2999999999993));
#1364=CARTESIAN_POINT('',(-42.0000003786267,-9.30000000000055,-64.2999999999993));
#1365=CARTESIAN_POINT('',(-41.9999999999998,0.449999999999648,-64.2999999999993));
#1366=CARTESIAN_POINT('Origin',(-38.9999999999998,-9.30000000000013,-64.2999999999993));
#1367=CARTESIAN_POINT('Origin',(-38.4499999999998,-9.30000000000013,-110.999999999999));
#1368=CARTESIAN_POINT('',(-42.0000003786267,-9.30000000000055,-103.699999999999));
#1369=CARTESIAN_POINT('',(-42.0000003786267,-9.30000000000055,-110.999999999999));
#1370=CARTESIAN_POINT('',(-38.9999999999998,-9.30000000000013,-106.699999999999));
#1371=CARTESIAN_POINT('Origin',(-38.9999999999998,-9.30000000000013,-103.699999999999));
#1372=CARTESIAN_POINT('',(-37.1000180996654,-9.30000000000013,-106.699999999999));
#1373=CARTESIAN_POINT('',(-33.4749999999998,-9.30000000000013,-106.699999999999));
#1374=CARTESIAN_POINT('',(-36.1000180996709,-9.30000000001064,-105.699999999999));
#1375=CARTESIAN_POINT('Origin',(-37.1000180996654,-9.29999999999484,-105.699999999999));
#1376=CARTESIAN_POINT('',(-36.1000180996709,-9.30000000001064,-62.2999999999993));
#1377=CARTESIAN_POINT('',(-36.100018099671,-9.30000000001064,-154.02276573284));
#1378=CARTESIAN_POINT('Origin',(-37.1000180996654,-9.29999999999484,-62.2999999999993));
#1379=CARTESIAN_POINT('Origin',(-38.9999999999998,0.449999999999612,-103.699999999999));
#1380=CARTESIAN_POINT('',(-41.9999999999998,1.70000024863187,-103.699999999999));
#1381=CARTESIAN_POINT('',(-38.9999999999998,1.70000024863166,-106.699999999999));
#1382=CARTESIAN_POINT('Origin',(-38.9999999999998,1.70000024863187,-103.699999999999));
#1383=CARTESIAN_POINT('',(-38.9999999999998,0.449999999999612,-106.699999999999));
#1384=CARTESIAN_POINT('',(-41.9999999999998,0.449999999999612,-103.699999999999));
#1385=CARTESIAN_POINT('Origin',(-28.4999999999998,0.699999999999505,-106.699999999999));
#1386=CARTESIAN_POINT('',(-17.9999999999998,1.70000024863187,-106.699999999999));
#1387=CARTESIAN_POINT('',(-26.8999999999998,1.70000024863166,-106.699999999999));
#1388=CARTESIAN_POINT('',(-17.9999999999998,-1.55000000000039,-106.699999999999));
#1389=CARTESIAN_POINT('',(-19.9000180996702,-8.08304170384744,-106.699999999999));
#1390=CARTESIAN_POINT('',(-19.900018099696,-1.49500000055446,-106.699999999999));
#1391=CARTESIAN_POINT('',(-20.9000180996856,-4.14045941567813,-106.699999999999));
#1392=CARTESIAN_POINT('',(-21.7218193039919,-0.900440543233938,-106.699999999999));
#1393=CARTESIAN_POINT('',(-20.9000180996928,-2.30000000114262,-106.699999999999));
#1394=CARTESIAN_POINT('',(-20.900018099696,-1.49500000055833,-106.699999999999));
#1395=CARTESIAN_POINT('',(-36.1000180996929,-2.30000000120218,-106.699999999999));
#1396=CARTESIAN_POINT('',(-28.5000000946532,-2.3000000011724,-106.699999999999));
#1397=CARTESIAN_POINT('',(-36.1000180996857,-4.14045466834144,-106.699999999999));
#1398=CARTESIAN_POINT('',(-36.1000180996924,-2.4200000006168,-106.699999999999));
#1399=CARTESIAN_POINT('',(-37.1000180996702,-8.08302717535373,-106.699999999999));
#1400=CARTESIAN_POINT('',(-35.7782139656422,-2.87171853679908,-106.699999999999));
#1401=CARTESIAN_POINT('',(-37.1000180996924,-2.42000000062075,-106.699999999999));
#1402=CARTESIAN_POINT('Origin',(-17.9999999999998,-1.55000000000039,-103.699999999999));
#1403=CARTESIAN_POINT('',(-14.9999999999998,1.70000024863173,-103.699999999999));
#1404=CARTESIAN_POINT('Origin',(-17.9999999999998,1.70000024863187,-103.699999999999));
#1405=CARTESIAN_POINT('',(-14.9999999999998,-1.55000000000039,-103.699999999999));
#1406=CARTESIAN_POINT('Origin',(-35.7564736070543,-5.22645556968672,-62.2999999999973));
#1407=CARTESIAN_POINT('',(-36.1000180996717,-8.20787128986978,-62.2999999999973));
#1408=CARTESIAN_POINT('',(-36.4650832317282,-8.02020039417363,-62.6999999999973));
#1409=CARTESIAN_POINT('Ctrl Pts',(-36.4650832317282,-8.02020039417363,-62.6999999999973));
#1410=CARTESIAN_POINT('Ctrl Pts',(-36.4214824329717,-8.04846368238124,-62.6999999999973));
#1411=CARTESIAN_POINT('Ctrl Pts',(-36.3736356646969,-8.07687742033447,-62.6903321246918));
#1412=CARTESIAN_POINT('Ctrl Pts',(-36.2836246962916,-8.12577881038077,-62.649483919583));
#1413=CARTESIAN_POINT('Ctrl Pts',(-36.241527346428,-8.14635878191593,-62.6182668899167));
#1414=CARTESIAN_POINT('Ctrl Pts',(-36.1756998967779,-8.17669539169046,-62.5464178737272));
#1415=CARTESIAN_POINT('Ctrl Pts',(-36.1472686214578,-8.18872479246335,-62.5016787034041));
#1416=CARTESIAN_POINT('Ctrl Pts',(-36.1094139804812,-8.20426074815913,-62.4035158366606));
#1417=CARTESIAN_POINT('Ctrl Pts',(-36.1000180996709,-8.20787128986663,-62.3500980284743));
#1418=CARTESIAN_POINT('Ctrl Pts',(-36.1000180996709,-8.20787128986663,-62.2999999999973));
#1419=CARTESIAN_POINT('',(-35.5103979980009,-4.25628463877172,-62.6999999999972));
#1420=CARTESIAN_POINT('',(-35.7564736070543,-5.22645556968672,-62.6999999999973));
#1421=CARTESIAN_POINT('',(-35.1000180996872,-4.26529878285762,-62.2999999999972));
#1422=CARTESIAN_POINT('Ctrl Pts',(-35.1000180996863,-4.26529878285434,-62.2999999999973));
#1423=CARTESIAN_POINT('Ctrl Pts',(-35.1000180996863,-4.26529878285434,-62.3500980284743));
#1424=CARTESIAN_POINT('Ctrl Pts',(-35.1099989632521,-4.26399457807555,-62.4035158366606));
#1425=CARTESIAN_POINT('Ctrl Pts',(-35.1506820814283,-4.25961009882387,-62.5016787034041));
#1426=CARTESIAN_POINT('Ctrl Pts',(-35.1814097360465,-4.25663433993712,-62.5464178737272));
#1427=CARTESIAN_POINT('Ctrl Pts',(-35.2537383015886,-4.25192885094382,-62.6182668899167));
#1428=CARTESIAN_POINT('Ctrl Pts',(-35.3005553042651,-4.24995645283185,-62.649483919583));
#1429=CARTESIAN_POINT('Ctrl Pts',(-35.4029921751961,-4.25004508445938,-62.6903321246918));
#1430=CARTESIAN_POINT('Ctrl Pts',(-35.4585972760585,-4.25221913526633,-62.6999999999973));
#1431=CARTESIAN_POINT('Ctrl Pts',(-35.5103979980009,-4.25628463877172,-62.6999999999973));
#1432=CARTESIAN_POINT('',(-36.1000180996717,-8.20787128986978,-62.2999999999973));
#1433=CARTESIAN_POINT('Origin',(-36.2564736070466,-7.19774182319279,-105.699999999997));
#1434=CARTESIAN_POINT('',(-35.1000180996872,-4.26529878285735,-105.699999999998));
#1435=CARTESIAN_POINT('',(-35.5103979980011,-4.256284638772,-105.299999999997));
#1436=CARTESIAN_POINT('Ctrl Pts',(-35.510397998001,-4.25628463877157,-105.299999999997));
#1437=CARTESIAN_POINT('Ctrl Pts',(-35.4585972760585,-4.25221913526617,-105.299999999997));
#1438=CARTESIAN_POINT('Ctrl Pts',(-35.4029921751962,-4.25004508445923,-105.309667875303));
#1439=CARTESIAN_POINT('Ctrl Pts',(-35.3005553042652,-4.2499564528317,-105.350516080412));
#1440=CARTESIAN_POINT('Ctrl Pts',(-35.2537383015886,-4.25192885094367,-105.381733110078));
#1441=CARTESIAN_POINT('Ctrl Pts',(-35.1814097360465,-4.25663433993696,-105.453582126268));
#1442=CARTESIAN_POINT('Ctrl Pts',(-35.1506820814284,-4.25961009882371,-105.498321296591));
#1443=CARTESIAN_POINT('Ctrl Pts',(-35.1099989632521,-4.26399457807539,-105.596484163334));
#1444=CARTESIAN_POINT('Ctrl Pts',(-35.1000180996864,-4.26529878285417,-105.64990197152));
#1445=CARTESIAN_POINT('Ctrl Pts',(-35.1000180996864,-4.26529878285417,-105.699999999997));
#1446=CARTESIAN_POINT('',(-36.4650832317284,-8.02020039417385,-105.299999999997));
#1447=CARTESIAN_POINT('',(-36.2564736070466,-7.19774182319279,-105.299999999997));
#1448=CARTESIAN_POINT('',(-36.1000180996717,-8.20787128986957,-105.699999999998));
#1449=CARTESIAN_POINT('Ctrl Pts',(-36.100018099671,-8.20787128986644,-105.699999999997));
#1450=CARTESIAN_POINT('Ctrl Pts',(-36.100018099671,-8.20787128986644,-105.64990197152));
#1451=CARTESIAN_POINT('Ctrl Pts',(-36.1094139804812,-8.20426074815895,-105.596484163334));
#1452=CARTESIAN_POINT('Ctrl Pts',(-36.1472686214578,-8.18872479246317,-105.498321296591));
#1453=CARTESIAN_POINT('Ctrl Pts',(-36.175699896778,-8.17669539169028,-105.453582126268));
#1454=CARTESIAN_POINT('Ctrl Pts',(-36.2415273464281,-8.14635878191575,-105.381733110078));
#1455=CARTESIAN_POINT('Ctrl Pts',(-36.2836246962917,-8.12577881038058,-105.350516080412));
#1456=CARTESIAN_POINT('Ctrl Pts',(-36.3736356646969,-8.07687742033428,-105.309667875303));
#1457=CARTESIAN_POINT('Ctrl Pts',(-36.4214824329717,-8.04846368238105,-105.299999999997));
#1458=CARTESIAN_POINT('Ctrl Pts',(-36.4650832317283,-8.02020039417344,-105.299999999997));
#1459=CARTESIAN_POINT('',(-35.1000180996872,-4.26529878285735,-105.699999999998));
#1460=CARTESIAN_POINT('Origin',(-35.3500000023977,-6.30000000129307,-106.700004685485));
#1461=CARTESIAN_POINT('Origin',(-35.3500000023978,-6.3000000012935,-105.299999999997));
#1462=CARTESIAN_POINT('',(-35.1000180996867,-4.26529878285413,-106.700004685485));
#1463=CARTESIAN_POINT('Origin',(-35.3500000023977,-6.30000000129323,-62.6999999999973));
#1464=CARTESIAN_POINT('',(-36.1000180996713,-8.20787128986631,-106.700004685485));
#1465=CARTESIAN_POINT('Origin',(-36.2500090510429,-6.22893564558332,-105.299999999997));
#1466=CARTESIAN_POINT('Origin',(-36.2500090510428,-6.2289356455831,-62.6999999999973));
#1467=CARTESIAN_POINT('Origin',(-36.1000180996924,-2.42000000061677,-62.2999999999993));
#1468=CARTESIAN_POINT('',(-35.1000180996928,-2.3000000011982,-62.2999999999993));
#1469=CARTESIAN_POINT('',(-35.1000180996924,-2.42000000061285,-62.2999999999993));
#1470=CARTESIAN_POINT('Origin',(-36.1000180996928,-2.30000000120324,-62.2999999999993));
#1471=CARTESIAN_POINT('Origin',(-36.1000180996856,-4.14045466834171,-62.2999999999993));
#1472=CARTESIAN_POINT('Origin',(-35.2782139656498,-0.900432283293096,-62.2999999999993));
#1473=CARTESIAN_POINT('Origin',(-37.1000180996702,-8.083027175354,-62.2999999999993));
#1474=CARTESIAN_POINT('Origin',(-37.1000180996924,-2.42000000062072,-62.2999999999993));
#1475=CARTESIAN_POINT('',(-36.1000180996923,-2.4200000006168,-62.2999999999993));
#1476=CARTESIAN_POINT('Origin',(-37.1000180996924,-2.42000000062075,-105.699999999999));
#1477=CARTESIAN_POINT('',(-36.1000180996924,-2.42000000061683,-105.699999999999));
#1478=CARTESIAN_POINT('Origin',(-37.1000180996702,-8.08302717535373,-105.699999999999));
#1479=CARTESIAN_POINT('Origin',(-35.7782139656422,-2.87171853679908,-105.699999999999));
#1480=CARTESIAN_POINT('Origin',(-36.1000180996857,-4.14045466834144,-105.699999999999));
#1481=CARTESIAN_POINT('Origin',(-36.1000180996924,-2.4200000006168,-105.699999999999));
#1482=CARTESIAN_POINT('',(-35.1000180996929,-2.30000000119866,-105.699999999999));
#1483=CARTESIAN_POINT('Origin',(-36.1000180996929,-2.30000000120324,-105.699999999999));
#1484=CARTESIAN_POINT('',(-35.1000180996924,-2.42000000061289,-105.699999999999));
#1485=CARTESIAN_POINT('Origin',(-36.1000180996803,-5.5400000012034,-197.045531465681));
#1486=CARTESIAN_POINT('Origin',(-35.1000180996803,-5.54000000119942,-197.045531465681));
#1487=CARTESIAN_POINT('',(-35.100018099693,-2.30000000119927,-202.045531465681));
#1488=CARTESIAN_POINT('Origin',(-28.4999999999998,-3.89999975137158,-83.9999999999993));
#1489=CARTESIAN_POINT('',(-38.4999999999998,-3.8999997513716,-75.3999999999993));
#1490=CARTESIAN_POINT('Origin',(-38.4999999999998,-3.89999975137161,-73.9999999999993));
#1491=CARTESIAN_POINT('Origin',(-28.4999999999998,-3.89999975137158,-83.9999999999993));
#1492=CARTESIAN_POINT('',(-38.4999999999998,-3.89999975137154,-95.3999999999993));
#1493=CARTESIAN_POINT('Origin',(-38.4999999999998,-3.89999975137155,-93.9999999999993));
#1494=CARTESIAN_POINT('Origin',(-20.7435623417595,-7.19775477719187,-62.2999999999973));
#1495=CARTESIAN_POINT('',(-21.9000180996872,-4.26530322996598,-62.2999999999972));
#1496=CARTESIAN_POINT('',(-21.4896401446724,-4.25628164587671,-62.6999999999972));
#1497=CARTESIAN_POINT('Ctrl Pts',(-21.4896401446724,-4.25628164587671,-62.6999999999972));
#1498=CARTESIAN_POINT('Ctrl Pts',(-21.5411657738283,-4.25223870006718,-62.6999999999972));
#1499=CARTESIAN_POINT('Ctrl Pts',(-21.5964914789818,-4.25006379481523,-62.6904343495419));
#1500=CARTESIAN_POINT('Ctrl Pts',(-21.6985033861336,-4.24993926270847,-62.6499909880913));
#1501=CARTESIAN_POINT('Ctrl Pts',(-21.7451748230537,-4.25187888547032,-62.6190764611143));
#1502=CARTESIAN_POINT('Ctrl Pts',(-21.8178011071382,-4.25656340192194,-62.547527621527));
#1503=CARTESIAN_POINT('Ctrl Pts',(-21.8488326713772,-4.25956066777558,-62.5026460927684));
#1504=CARTESIAN_POINT('Ctrl Pts',(-21.8899281552056,-4.26398389629498,-62.4040660454227));
#1505=CARTESIAN_POINT('Ctrl Pts',(-21.900018099688,-4.26530322996285,-62.350373622209));
#1506=CARTESIAN_POINT('Ctrl Pts',(-21.900018099688,-4.26530322996285,-62.2999999999973));
#1507=CARTESIAN_POINT('',(-20.534950908033,-8.02022252089876,-62.6999999999973));
#1508=CARTESIAN_POINT('',(-20.7435623417595,-7.19775477719187,-62.6999999999973));
#1509=CARTESIAN_POINT('',(-20.9000180996718,-8.20788551813514,-62.2999999999973));
#1510=CARTESIAN_POINT('Ctrl Pts',(-20.9000180996726,-8.20788551813235,-62.2999999999973));
#1511=CARTESIAN_POINT('Ctrl Pts',(-20.9000180996726,-8.20788551813235,-62.350373622209));
#1512=CARTESIAN_POINT('Ctrl Pts',(-20.8905191097597,-8.20423629744579,-62.4040660454227));
#1513=CARTESIAN_POINT('Ctrl Pts',(-20.8522834670358,-8.18853791004064,-62.5026460927684));
#1514=CARTESIAN_POINT('Ctrl Pts',(-20.8235747568975,-8.17638260075148,-62.547527621527));
#1515=CARTESIAN_POINT('Ctrl Pts',(-20.7574955399649,-8.1458857333077,-62.6190764611144));
#1516=CARTESIAN_POINT('Ctrl Pts',(-20.715541755425,-8.12534637783052,-62.6499909880913));
#1517=CARTESIAN_POINT('Ctrl Pts',(-20.6259214299258,-8.07661607959197,-62.6904343495419));
#1518=CARTESIAN_POINT('Ctrl Pts',(-20.5783206548386,-8.04833481238759,-62.6999999999973));
#1519=CARTESIAN_POINT('Ctrl Pts',(-20.534950908033,-8.02022252089876,-62.6999999999973));
#1520=CARTESIAN_POINT('',(-21.9000180996872,-4.26530322996598,-62.2999999999972));
#1521=CARTESIAN_POINT('Origin',(-21.2435623417672,-5.22646363310708,-105.699999999998));
#1522=CARTESIAN_POINT('',(-20.9000180996719,-8.207885518135,-105.699999999998));
#1523=CARTESIAN_POINT('',(-20.5349509080331,-8.02022252089864,-105.299999999998));
#1524=CARTESIAN_POINT('Ctrl Pts',(-20.5349509080331,-8.02022252089864,-105.299999999998));
#1525=CARTESIAN_POINT('Ctrl Pts',(-20.5783206548387,-8.04833481238746,-105.299999999998));
#1526=CARTESIAN_POINT('Ctrl Pts',(-20.6259214299259,-8.07661607959185,-105.309565650453));
#1527=CARTESIAN_POINT('Ctrl Pts',(-20.7155417554251,-8.12534637783039,-105.350009011904));
#1528=CARTESIAN_POINT('Ctrl Pts',(-20.757495539965,-8.14588573330757,-105.380923538881));
#1529=CARTESIAN_POINT('Ctrl Pts',(-20.8235747568976,-8.17638260075134,-105.452472378468));
#1530=CARTESIAN_POINT('Ctrl Pts',(-20.8522834670359,-8.18853791004051,-105.497353907226));
#1531=CARTESIAN_POINT('Ctrl Pts',(-20.8905191097597,-8.20423629744566,-105.595933954572));
#1532=CARTESIAN_POINT('Ctrl Pts',(-20.9000180996726,-8.20788551813221,-105.649626377786));
#1533=CARTESIAN_POINT('Ctrl Pts',(-20.9000180996726,-8.20788551813221,-105.699999999998));
#1534=CARTESIAN_POINT('',(-21.4896401446724,-4.25628164587655,-105.299999999998));
#1535=CARTESIAN_POINT('',(-21.2435623417672,-5.22646363310708,-105.299999999998));
#1536=CARTESIAN_POINT('',(-21.9000180996873,-4.26530322996577,-105.699999999998));
#1537=CARTESIAN_POINT('Ctrl Pts',(-21.9000180996881,-4.2653032299627,-105.699999999998));
#1538=CARTESIAN_POINT('Ctrl Pts',(-21.9000180996881,-4.2653032299627,-105.649626377786));
#1539=CARTESIAN_POINT('Ctrl Pts',(-21.8899281552057,-4.26398389629483,-105.595933954572));
#1540=CARTESIAN_POINT('Ctrl Pts',(-21.8488326713773,-4.25956066777543,-105.497353907226));
#1541=CARTESIAN_POINT('Ctrl Pts',(-21.8178011071382,-4.25656340192178,-105.452472378468));
#1542=CARTESIAN_POINT('Ctrl Pts',(-21.7451748230537,-4.25187888547017,-105.380923538881));
#1543=CARTESIAN_POINT('Ctrl Pts',(-21.6985033861337,-4.24993926270832,-105.350009011904));
#1544=CARTESIAN_POINT('Ctrl Pts',(-21.5964914789818,-4.25006379481508,-105.309565650453));
#1545=CARTESIAN_POINT('Ctrl Pts',(-21.5411657738283,-4.25223870006703,-105.299999999998));
#1546=CARTESIAN_POINT('Ctrl Pts',(-21.4896401446724,-4.25628164587655,-105.299999999998));
#1547=CARTESIAN_POINT('',(-21.9000180996873,-4.26530322996577,-105.699999999998));
#1548=CARTESIAN_POINT('Origin',(-20.7500090510429,-6.22894275968683,-105.299999999998));
#1549=CARTESIAN_POINT('Origin',(-21.6500000023976,-6.30000000123531,-105.299999999998));
#1550=CARTESIAN_POINT('Origin',(-21.6500000023976,-6.3000000012353,-106.700004685485));
#1551=CARTESIAN_POINT('',(-20.9000180996713,-8.20788551813169,-106.700004685485));
#1552=CARTESIAN_POINT('Origin',(-21.6500000023976,-6.30000000123546,-62.6999999999973));
#1553=CARTESIAN_POINT('',(-21.9000180996867,-4.26530322996253,-106.700004685485));
#1554=CARTESIAN_POINT('Origin',(-20.7500090510429,-6.22894275968704,-62.6999999999973));
#1555=CARTESIAN_POINT('Origin',(-19.900018099696,-1.49500000055442,-62.2999999999993));
#1556=CARTESIAN_POINT('',(-20.900018099696,-1.49500000055834,-62.2999999999993));
#1557=CARTESIAN_POINT('Origin',(-19.9000180996702,-8.08304170384754,-62.2999999999993));
#1558=CARTESIAN_POINT('Origin',(-21.2218193039842,-2.87173168731859,-62.2999999999993));
#1559=CARTESIAN_POINT('Origin',(-20.9000180996856,-4.14045941567831,-62.2999999999993));
#1560=CARTESIAN_POINT('Origin',(-20.9000180996959,-1.4950000005583,-62.2999999999993));
#1561=CARTESIAN_POINT('',(-21.9000180996928,-2.30000000114645,-62.2999999999993));
#1562=CARTESIAN_POINT('Origin',(-20.9000180996928,-2.30000000114369,-62.2999999999993));
#1563=CARTESIAN_POINT('',(-21.9000180996959,-1.49500000056222,-62.2999999999993));
#1564=CARTESIAN_POINT('Origin',(-20.9000180996875,-3.69000000114603,-197.045531465681));
#1565=CARTESIAN_POINT('',(-20.900018099696,-1.49500000055837,-105.699999999999));
#1566=CARTESIAN_POINT('Origin',(-21.9000180996875,-3.69000000114987,-197.045531465681));
#1567=CARTESIAN_POINT('',(-21.9000180996928,-2.30000000114691,-105.699999999999));
#1568=CARTESIAN_POINT('',(-21.9000180996929,-2.30000000114755,-202.045531465681));
#1569=CARTESIAN_POINT('',(-21.900018099696,-1.49500000056225,-105.699999999999));
#1570=CARTESIAN_POINT('Origin',(-19.900018099696,-1.49500000055446,-105.699999999999));
#1571=CARTESIAN_POINT('Origin',(-19.9000180996702,-8.08304170384744,-105.699999999999));
#1572=CARTESIAN_POINT('Origin',(-20.900018099696,-1.49500000055833,-105.699999999999));
#1573=CARTESIAN_POINT('Origin',(-20.9000180996928,-2.30000000114369,-105.699999999999));
#1574=CARTESIAN_POINT('Origin',(-20.9000180996856,-4.14045941567813,-105.699999999999));
#1575=CARTESIAN_POINT('Origin',(-21.7218193039919,-0.900440543233938,-105.699999999999));
#1576=CARTESIAN_POINT('Origin',(-28.4999999999998,-3.89999975137158,-83.9999999999993));
#1577=CARTESIAN_POINT('',(-18.4999999999998,-3.89999975137161,-75.3999999999993));
#1578=CARTESIAN_POINT('Origin',(-18.4999999999998,-3.89999975137161,-73.9999999999993));
#1579=CARTESIAN_POINT('Origin',(-28.4999999999998,-3.89999975137158,-83.9999999999993));
#1580=CARTESIAN_POINT('',(-18.4999999999998,-3.89999975137155,-95.3999999999993));
#1581=CARTESIAN_POINT('Origin',(-18.4999999999998,-3.89999975137155,-93.9999999999993));
#1582=CARTESIAN_POINT('Origin',(-24.3200000022094,-2.30000000115709,-207.045531465681));
#1583=CARTESIAN_POINT('Origin',(-14.9999999999998,-3.80000000000028,-110.999999999999));
#1584=CARTESIAN_POINT('',(-14.9999999999998,1.70000024863173,-110.999999999999));
#1585=CARTESIAN_POINT('Origin',(-17.9999999999998,1.90000024863187,-64.2999999999993));
#1586=CARTESIAN_POINT('',(-15.3999999999998,2.10000024863187,-64.2999999999993));
#1587=CARTESIAN_POINT('',(-15.3999999999998,2.10000024863187,-64.2999999999993));
#1588=CARTESIAN_POINT('',(-17.9999999999998,2.10000024863187,-61.6999999999993));
#1589=CARTESIAN_POINT('Origin',(-17.9999999999998,2.10000024863187,-64.2999999999993));
#1590=CARTESIAN_POINT('',(-17.9999999999998,1.70000024863173,-61.2999999999993));
#1591=CARTESIAN_POINT('Origin',(-41.9999999999998,0.199999999999719,-110.999999999999));
#1592=CARTESIAN_POINT('',(-41.9999999999998,1.70000024863173,-110.999999999999));
#1593=CARTESIAN_POINT('Origin',(-38.9999999999998,1.90000024863187,-64.2999999999993));
#1594=CARTESIAN_POINT('',(-38.9999999999998,2.10000024863187,-61.6999999999993));
#1595=CARTESIAN_POINT('',(-38.9999999999998,1.70000024863187,-61.2999999999993));
#1596=CARTESIAN_POINT('',(-41.5999999999998,2.10000024863187,-64.2999999999993));
#1597=CARTESIAN_POINT('Origin',(-38.9999999999998,2.10000024863187,-64.2999999999993));
#1598=CARTESIAN_POINT('',(-41.9999999999998,1.70000024863173,-64.2999999999993));
#1599=CARTESIAN_POINT('Origin',(-38.9999999999998,1.90000024863187,-103.699999999999));
#1600=CARTESIAN_POINT('',(-41.5999999999998,2.10000024863187,-103.699999999999));
#1601=CARTESIAN_POINT('',(-41.9999999999998,1.70000024863187,-103.699999999999));
#1602=CARTESIAN_POINT('',(-38.9999999999998,2.10000024863187,-106.299999999999));
#1603=CARTESIAN_POINT('Origin',(-38.9999999999998,2.10000024863187,-103.699999999999));
#1604=CARTESIAN_POINT('',(-38.9999999999998,1.70000024863166,-106.699999999999));
#1605=CARTESIAN_POINT('Origin',(-17.9999999999998,1.90000024863187,-103.699999999999));
#1606=CARTESIAN_POINT('',(-17.9999999999998,2.10000024863187,-106.299999999999));
#1607=CARTESIAN_POINT('',(-17.9999999999998,1.70000024863187,-106.699999999999));
#1608=CARTESIAN_POINT('',(-15.3999999999998,2.10000024863187,-103.699999999999));
#1609=CARTESIAN_POINT('Origin',(-17.9999999999998,2.10000024863187,-103.699999999999));
#1610=CARTESIAN_POINT('',(-14.9999999999998,1.70000024863173,-103.699999999999));
#1611=CARTESIAN_POINT('Origin',(-26.8999999999998,1.9000002486318,-61.4999999999993));
#1612=CARTESIAN_POINT('',(-26.8999999999998,2.10000024863187,-61.6999999999993));
#1613=CARTESIAN_POINT('Origin',(-41.7999999999998,1.9000002486318,-110.999999999999));
#1614=CARTESIAN_POINT('',(-41.5999999999998,2.10000024863187,-110.999999999999));
#1615=CARTESIAN_POINT('Origin',(-26.8999999999998,1.90000024863177,-106.499999999999));
#1616=CARTESIAN_POINT('',(-26.8999999999998,2.10000024863187,-106.299999999999));
#1617=CARTESIAN_POINT('Origin',(-15.1999999999998,1.9000002486318,-110.999999999999));
#1618=CARTESIAN_POINT('',(-15.3999999999998,2.10000024863187,-110.999999999999));
#1619=CARTESIAN_POINT('Origin',(-18.4999999999998,2.00000024863171,-93.9999999999993));
#1620=CARTESIAN_POINT('',(-18.4999999999998,1.90000024863155,-95.3999999999993));
#1621=CARTESIAN_POINT('Origin',(-18.4999999999998,1.90000024863155,-93.9999999999993));
#1622=CARTESIAN_POINT('',(-18.4999999999998,2.10000024863187,-95.5999999999995));
#1623=CARTESIAN_POINT('',(-18.4999999999998,2.00000024863171,-95.4999999999994));
#1624=CARTESIAN_POINT('Origin',(-18.4999999999998,2.10000024863187,-93.9999999999993));
#1625=CARTESIAN_POINT('Origin',(-38.4999999999998,2.00000024863172,-93.9999999999993));
#1626=CARTESIAN_POINT('',(-38.4999999999998,1.90000024863157,-95.3999999999993));
#1627=CARTESIAN_POINT('Origin',(-38.4999999999998,1.90000024863156,-93.9999999999993));
#1628=CARTESIAN_POINT('',(-38.4999999999998,2.10000024863187,-95.5999999999995));
#1629=CARTESIAN_POINT('',(-38.4999999999998,2.00000024863172,-95.4999999999994));
#1630=CARTESIAN_POINT('Origin',(-38.4999999999998,2.10000024863187,-93.9999999999993));
#1631=CARTESIAN_POINT('Origin',(-38.4999999999998,2.00000024863166,-73.9999999999993));
#1632=CARTESIAN_POINT('',(-38.4999999999998,1.90000024863145,-75.3999999999993));
#1633=CARTESIAN_POINT('Origin',(-38.4999999999998,1.90000024863145,-73.9999999999993));
#1634=CARTESIAN_POINT('',(-38.4999999999998,2.10000024863187,-75.5999999999995));
#1635=CARTESIAN_POINT('',(-38.4999999999998,2.00000024863166,-75.4999999999994));
#1636=CARTESIAN_POINT('Origin',(-38.4999999999998,2.10000024863187,-73.9999999999993));
#1637=CARTESIAN_POINT('Origin',(-25.2999999999998,2.10000024863187,-110.999999999999));
#1638=CARTESIAN_POINT('',(-18.4999999999998,2.10000024863187,-75.5999999999995));
#1639=CARTESIAN_POINT('Origin',(-18.4999999999998,2.10000024863187,-73.9999999999993));
#1640=CARTESIAN_POINT('Origin',(-18.4999999999998,2.00000024863165,-73.9999999999993));
#1641=CARTESIAN_POINT('',(-18.4999999999998,1.90000024863143,-75.3999999999993));
#1642=CARTESIAN_POINT('Origin',(-18.4999999999998,1.90000024863143,-73.9999999999993));
#1643=CARTESIAN_POINT('',(-18.4999999999998,2.00000024863165,-75.4999999999994));
#1644=CARTESIAN_POINT('Origin',(-18.4999999999998,2.10000024862815,-93.9999999999993));
#1645=CARTESIAN_POINT('',(-18.4999999999998,2.10000024862815,-95.3999999999993));
#1646=CARTESIAN_POINT('Origin',(-38.4999999999998,2.10000024862843,-93.9999999999993));
#1647=CARTESIAN_POINT('',(-38.4999999999998,2.10000024862844,-95.3999999999993));
#1648=CARTESIAN_POINT('Origin',(-38.4999999999998,2.10000024862815,-73.9999999999993));
#1649=CARTESIAN_POINT('',(-38.4999999999998,2.10000024862815,-75.3999999999993));
#1650=CARTESIAN_POINT('Origin',(-18.4999999999998,2.10000024862815,-73.9999999999993));
#1651=CARTESIAN_POINT('',(-18.4999999999998,2.10000024862815,-75.3999999999993));
#1652=UNCERTAINTY_MEASURE_WITH_UNIT(LENGTH_MEASURE(0.01),#1656,
'DISTANCE_ACCURACY_VALUE',
'Maximum model space distance between geometric entities at asserted c
onnectivities');
#1653=UNCERTAINTY_MEASURE_WITH_UNIT(LENGTH_MEASURE(0.01),#1656,
'DISTANCE_ACCURACY_VALUE',
'Maximum model space distance between geometric entities at asserted c
onnectivities');
#1654=(
GEOMETRIC_REPRESENTATION_CONTEXT(3)
GLOBAL_UNCERTAINTY_ASSIGNED_CONTEXT((#1652))
GLOBAL_UNIT_ASSIGNED_CONTEXT((#1656,#1658,#1659))
REPRESENTATION_CONTEXT('','3D')
);
#1655=(
GEOMETRIC_REPRESENTATION_CONTEXT(3)
GLOBAL_UNCERTAINTY_ASSIGNED_CONTEXT((#1653))
GLOBAL_UNIT_ASSIGNED_CONTEXT((#1656,#1658,#1659))
REPRESENTATION_CONTEXT('','3D')
);
#1656=(
LENGTH_UNIT()
NAMED_UNIT(*)
SI_UNIT(.MILLI.,.METRE.)
);
#1657=(
LENGTH_UNIT()
NAMED_UNIT(*)
SI_UNIT($,.METRE.)
);
#1658=(
NAMED_UNIT(*)
PLANE_ANGLE_UNIT()
SI_UNIT($,.RADIAN.)
);
#1659=(
NAMED_UNIT(*)
SI_UNIT($,.STERADIAN.)
SOLID_ANGLE_UNIT()
);
#1660=SHAPE_DEFINITION_REPRESENTATION(#1661,#1662);
#1661=PRODUCT_DEFINITION_SHAPE('',$,#1664);
#1662=SHAPE_REPRESENTATION('',(#932),#1654);
#1663=PRODUCT_DEFINITION_CONTEXT('part definition',#1668,'design');
#1664=PRODUCT_DEFINITION('MGN9HZ1C \X\BB\X\AC\X\BF\X\E9 sliding block',
'Block_screws',#1665,#1663);
#1665=PRODUCT_DEFINITION_FORMATION('',$,#1670);
#1666=PRODUCT_RELATED_PRODUCT_CATEGORY('Block_screws','Block_screws',(#1670));
#1667=APPLICATION_PROTOCOL_DEFINITION('international standard',
'automotive_design',2009,#1668);
#1668=APPLICATION_CONTEXT(
'Core Data for Automotive Mechanical Design Process');
#1669=PRODUCT_CONTEXT('part definition',#1668,'mechanical');
#1670=PRODUCT('MGN9HZ1C \X\BB\X\AC\X\BF\X\E9 sliding block',
'Block_screws',$,(#1669));
#1671=PRESENTATION_STYLE_ASSIGNMENT((#1673));
#1672=PRESENTATION_STYLE_ASSIGNMENT((#1674));
#1673=SURFACE_STYLE_USAGE(.BOTH.,#1675);
#1674=SURFACE_STYLE_USAGE(.BOTH.,#1676);
#1675=SURFACE_SIDE_STYLE('',(#1677));
#1676=SURFACE_SIDE_STYLE('',(#1678));
#1677=SURFACE_STYLE_FILL_AREA(#1679);
#1678=SURFACE_STYLE_FILL_AREA(#1680);
#1679=FILL_AREA_STYLE('Steel - Satin',(#1681));
#1680=FILL_AREA_STYLE('Opaque(0,128,255)',(#1682));
#1681=FILL_AREA_STYLE_COLOUR('Steel - Satin',#1683);
#1682=FILL_AREA_STYLE_COLOUR('Opaque(0,128,255)',#1684);
#1683=COLOUR_RGB('Steel - Satin',0.627450980392157,0.627450980392157,0.627450980392157);
#1684=COLOUR_RGB('Opaque(0,128,255)',0.,0.501960784313725,1.);
ENDSEC;
END-ISO-10303-21;
